<?xml version="1.0" encoding="utf-8"?>
<!-- Generator: Adobe Illustrator 22.1.0, SVG Export Plug-In . SVG Version: 6.00 Build 0)  -->
<svg version="1.1" id="Layer_1" xmlns="http://www.w3.org/2000/svg" xmlns:xlink="http://www.w3.org/1999/xlink" x="0px" y="0px"
	 viewBox="0 0 1517.3 772.7" style="enable-background:new 0 0 1517.3 772.7;" xml:space="preserve">
<style type="text/css">
	.st0{fill:#FFEEFF;}
	.st1{opacity:0.46;}
	.st2{fill:none;stroke:#1C2237;stroke-miterlimit:10;}
	.st3{opacity:0.6;fill:none;stroke:#1C2237;stroke-miterlimit:10;enable-background:new    ;}
	.st4{opacity:0.4;fill:none;stroke:#1C2237;stroke-miterlimit:10;enable-background:new    ;}
	.st5{opacity:0.41;fill:none;stroke:#1C2237;stroke-miterlimit:10;enable-background:new    ;}
	.st6{opacity:0.39;fill:none;stroke:#1C2237;stroke-miterlimit:10;enable-background:new    ;}
	.st7{fill:#FFFFFF;stroke:#1C2237;stroke-miterlimit:10;}
	.st8{fill:#1C2237;}
</style>
<symbol  id="New_Symbol_5" viewBox="-0.9 -0.9 1.8 1.8">
	<circle class="st0" cx="0" cy="0" r="0.9"/>
</symbol>
<g class="st1">
	
		<use xlink:href="#New_Symbol_5"  width="1.8" height="1.8" x="-0.9" y="-0.9" transform="matrix(-0.8455 0 0 -0.8061 1392.2942 372.7025)" style="overflow:visible;"/>
	
		<use xlink:href="#New_Symbol_5"  width="1.8" height="1.8" x="-0.9" y="-0.9" transform="matrix(-0.8455 0 0 -0.8061 1421.9629 323.0652)" style="overflow:visible;opacity:0.55;"/>
	
		<use xlink:href="#New_Symbol_5"  width="1.8" height="1.8" x="-0.9" y="-0.9" transform="matrix(-0.8455 0 0 -0.8061 1408.1412 319.334)" style="overflow:visible;opacity:0.55;"/>
	
		<use xlink:href="#New_Symbol_5"  width="1.8" height="1.8" x="-0.9" y="-0.9" transform="matrix(-0.8455 0 0 -0.8061 1401.7668 300.2655)" style="overflow:visible;opacity:0.55;"/>
	
		<use xlink:href="#New_Symbol_5"  width="1.8" height="1.8" x="-0.9" y="-0.9" transform="matrix(-0.8455 0 0 -0.8061 1443.4827 306.8471)" style="overflow:visible;opacity:0.55;"/>
	
		<use xlink:href="#New_Symbol_5"  width="1.8" height="1.8" x="-0.9" y="-0.9" transform="matrix(-0.8455 0 0 -0.8061 1448.6166 306.8788)" style="overflow:visible;opacity:0.55;"/>
	
		<use xlink:href="#New_Symbol_5"  width="1.8" height="1.8" x="-0.9" y="-0.9" transform="matrix(-0.8455 0 0 -0.8061 1469.9958 361.1931)" style="overflow:visible;opacity:0.55;"/>
	
		<use xlink:href="#New_Symbol_5"  width="1.8" height="1.8" x="-0.9" y="-0.9" transform="matrix(-0.8455 0 0 -0.8061 1453.9829 342.0283)" style="overflow:visible;opacity:0.55;"/>
	
		<use xlink:href="#New_Symbol_5"  width="1.8" height="1.8" x="-0.9" y="-0.9" transform="matrix(-0.8455 0 0 -0.8061 1450.7408 352.6114)" style="overflow:visible;opacity:0.55;"/>
	
		<use xlink:href="#New_Symbol_5"  width="1.8" height="1.8" x="-0.9" y="-0.9" transform="matrix(-0.8455 0 0 -0.8061 1405.4408 341.8603)" style="overflow:visible;opacity:0.55;"/>
	
		<use xlink:href="#New_Symbol_5"  width="1.8" height="1.8" x="-0.9" y="-0.9" transform="matrix(-0.8455 0 0 -0.8061 1378.0498 324.1806)" style="overflow:visible;opacity:0.55;"/>
	
		<use xlink:href="#New_Symbol_5"  width="1.8" height="1.8" x="-0.9" y="-0.9" transform="matrix(-0.8455 0 0 -0.8061 1370.069 314.7332)" style="overflow:visible;opacity:0.55;"/>
	
		<use xlink:href="#New_Symbol_5"  width="1.8" height="1.8" x="-0.9" y="-0.9" transform="matrix(-0.8455 0 0 -0.8061 1386.4323 294.7248)" style="overflow:visible;opacity:0.55;"/>
	
		<use xlink:href="#New_Symbol_5"  width="1.8" height="1.8" x="-0.9" y="-0.9" transform="matrix(-0.8455 0 0 -0.8061 1428.0352 275.7442)" style="overflow:visible;opacity:0.55;"/>
	
		<use xlink:href="#New_Symbol_5"  width="1.8" height="1.8" x="-0.9" y="-0.9" transform="matrix(-0.8455 0 0 -0.8061 1449.4695 277.9051)" style="overflow:visible;opacity:0.55;"/>
	
		<use xlink:href="#New_Symbol_5"  width="1.8" height="1.8" x="-0.9" y="-0.9" transform="matrix(-0.8455 0 0 -0.8061 1448.0576 271.7855)" style="overflow:visible;opacity:0.55;"/>
	
		<use xlink:href="#New_Symbol_5"  width="1.8" height="1.8" x="-0.9" y="-0.9" transform="matrix(-0.8455 0 0 -0.8061 1420.2068 284.3215)" style="overflow:visible;opacity:0.55;"/>
	
		<use xlink:href="#New_Symbol_5"  width="1.8" height="1.8" x="-0.9" y="-0.9" transform="matrix(-0.8455 0 0 -0.8061 1364.0627 287.8062)" style="overflow:visible;opacity:0.55;"/>
	
		<use xlink:href="#New_Symbol_5"  width="1.8" height="1.8" x="-0.9" y="-0.9" transform="matrix(-0.8455 0 0 -0.8061 1338.1696 282.8658)" style="overflow:visible;opacity:0.55;"/>
	
		<use xlink:href="#New_Symbol_5"  width="1.8" height="1.8" x="-0.9" y="-0.9" transform="matrix(-0.8455 0 0 -0.8061 1449.8835 408.1787)" style="overflow:visible;opacity:0.55;"/>
	
		<use xlink:href="#New_Symbol_5"  width="1.8" height="1.8" x="-0.9" y="-0.9" transform="matrix(-0.8455 0 0 -0.8061 1454.8418 426.8048)" style="overflow:visible;opacity:0.55;"/>
	
		<use xlink:href="#New_Symbol_5"  width="1.8" height="1.8" x="-0.9" y="-0.9" transform="matrix(-0.8455 0 0 -0.8061 1448.1074 444.5662)" style="overflow:visible;opacity:0.55;"/>
	
		<use xlink:href="#New_Symbol_5"  width="1.8" height="1.8" x="-0.9" y="-0.9" transform="matrix(-0.8455 0 0 -0.8061 1461.3545 466.5746)" style="overflow:visible;opacity:0.55;"/>
	
		<use xlink:href="#New_Symbol_5"  width="1.8" height="1.8" x="-0.9" y="-0.9" transform="matrix(-0.8455 0 0 -0.8061 1473.7502 486.8192)" style="overflow:visible;opacity:0.55;"/>
	
		<use xlink:href="#New_Symbol_5"  width="1.8" height="1.8" x="-0.9" y="-0.9" transform="matrix(-0.8455 0 0 -0.8061 1477.588 499.1376)" style="overflow:visible;opacity:0.55;"/>
	
		<use xlink:href="#New_Symbol_5"  width="1.8" height="1.8" x="-0.9" y="-0.9" transform="matrix(-0.8455 0 0 -0.8061 1423.993 468.3238)" style="overflow:visible;opacity:0.55;"/>
	
		<use xlink:href="#New_Symbol_5"  width="1.8" height="1.8" x="-0.9" y="-0.9" transform="matrix(-0.8455 0 0 -0.8061 1418.5959 462.0395)" style="overflow:visible;opacity:0.55;"/>
	
		<use xlink:href="#New_Symbol_5"  width="1.8" height="1.8" x="-0.9" y="-0.9" transform="matrix(-0.8455 0 0 -0.8061 1394.2201 461.9903)" style="overflow:visible;opacity:0.55;"/>
	
		<use xlink:href="#New_Symbol_5"  width="1.8" height="1.8" x="-0.9" y="-0.9" transform="matrix(-0.8455 0 0 -0.8061 1390.7855 454.1282)" style="overflow:visible;opacity:0.55;"/>
	
		<use xlink:href="#New_Symbol_5"  width="1.8" height="1.8" x="-0.9" y="-0.9" transform="matrix(-0.8455 0 0 -0.8061 1404.944 436.0257)" style="overflow:visible;opacity:0.55;"/>
	
		<use xlink:href="#New_Symbol_5"  width="1.8" height="1.8" x="-0.9" y="-0.9" transform="matrix(-0.8455 0 0 -0.8061 1391.8525 439.5243)" style="overflow:visible;opacity:0.55;"/>
	
		<use xlink:href="#New_Symbol_5"  width="1.8" height="1.8" x="-0.9" y="-0.9" transform="matrix(-0.8455 0 0 -0.8061 1373.4629 446.0206)" style="overflow:visible;opacity:0.55;"/>
	
		<use xlink:href="#New_Symbol_5"  width="1.8" height="1.8" x="-0.9" y="-0.9" transform="matrix(-0.8455 0 0 -0.8061 1366.5767 455.874)" style="overflow:visible;opacity:0.55;"/>
	
		<use xlink:href="#New_Symbol_5"  width="1.8" height="1.8" x="-0.9" y="-0.9" transform="matrix(-0.8455 0 0 -0.8061 1390.405 469.1691)" style="overflow:visible;opacity:0.55;"/>
	
		<use xlink:href="#New_Symbol_5"  width="1.8" height="1.8" x="-0.9" y="-0.9" transform="matrix(-0.8455 0 0 -0.8061 1458.8308 491.7532)" style="overflow:visible;opacity:0.55;"/>
	
		<use xlink:href="#New_Symbol_5"  width="1.8" height="1.8" x="-0.9" y="-0.9" transform="matrix(-0.8455 0 0 -0.8061 1464.91 517.8585)" style="overflow:visible;opacity:0.55;"/>
	
		<use xlink:href="#New_Symbol_5"  width="1.8" height="1.8" x="-0.9" y="-0.9" transform="matrix(-0.8455 0 0 -0.8061 1438.1007 515.5801)" style="overflow:visible;opacity:0.55;"/>
	
		<use xlink:href="#New_Symbol_5"  width="1.8" height="1.8" x="-0.9" y="-0.9" transform="matrix(-0.8455 0 0 -0.8061 1409.88 490.8058)" style="overflow:visible;opacity:0.55;"/>
	
		<use xlink:href="#New_Symbol_5"  width="1.8" height="1.8" x="-0.9" y="-0.9" transform="matrix(-0.8455 0 0 -0.8061 1408.5212 497.5008)" style="overflow:visible;opacity:0.55;"/>
	
		<use xlink:href="#New_Symbol_5"  width="1.8" height="1.8" x="-0.9" y="-0.9" transform="matrix(-0.8455 0 0 -0.8061 1437.0731 526.1429)" style="overflow:visible;opacity:0.55;"/>
	
		<use xlink:href="#New_Symbol_5"  width="1.8" height="1.8" x="-0.9" y="-0.9" transform="matrix(-0.8455 0 0 -0.8061 1451.4224 573.5461)" style="overflow:visible;opacity:0.55;"/>
	
		<use xlink:href="#New_Symbol_5"  width="1.8" height="1.8" x="-0.9" y="-0.9" transform="matrix(-0.8455 0 0 -0.8061 1473.0936 593.8974)" style="overflow:visible;opacity:0.55;"/>
	
		<use xlink:href="#New_Symbol_5"  width="1.8" height="1.8" x="-0.9" y="-0.9" transform="matrix(-0.8455 0 0 -0.8061 1439.0466 598.3949)" style="overflow:visible;opacity:0.55;"/>
	
		<use xlink:href="#New_Symbol_5"  width="1.8" height="1.8" x="-0.9" y="-0.9" transform="matrix(-0.8455 0 0 -0.8061 1396.74 602.2583)" style="overflow:visible;opacity:0.55;"/>
	
		<use xlink:href="#New_Symbol_5"  width="1.8" height="1.8" x="-0.9" y="-0.9" transform="matrix(-0.8455 0 0 -0.8061 1398.3129 549.8907)" style="overflow:visible;opacity:0.55;"/>
	
		<use xlink:href="#New_Symbol_5"  width="1.8" height="1.8" x="-0.9" y="-0.9" transform="matrix(-0.8455 0 0 -0.8061 1380.248 577.0014)" style="overflow:visible;opacity:0.55;"/>
	
		<use xlink:href="#New_Symbol_5"  width="1.8" height="1.8" x="-0.9" y="-0.9" transform="matrix(-0.8455 0 0 -0.8061 1383.8988 594.9833)" style="overflow:visible;opacity:0.55;"/>
	
		<use xlink:href="#New_Symbol_5"  width="1.8" height="1.8" x="-0.9" y="-0.9" transform="matrix(-0.8455 0 0 -0.8061 1379.3956 625.2661)" style="overflow:visible;opacity:0.55;"/>
	
		<use xlink:href="#New_Symbol_5"  width="1.8" height="1.8" x="-0.9" y="-0.9" transform="matrix(-0.8455 0 0 -0.8061 1403.8326 643.8557)" style="overflow:visible;opacity:0.55;"/>
	
		<use xlink:href="#New_Symbol_5"  width="1.8" height="1.8" x="-0.9" y="-0.9" transform="matrix(-0.8455 0 0 -0.8061 1437.424 657.6184)" style="overflow:visible;opacity:0.55;"/>
	
		<use xlink:href="#New_Symbol_5"  width="1.8" height="1.8" x="-0.9" y="-0.9" transform="matrix(-0.8455 0 0 -0.8061 1414.5675 577.1596)" style="overflow:visible;opacity:0.55;"/>
	
		<use xlink:href="#New_Symbol_5"  width="1.8" height="1.8" x="-0.9" y="-0.9" transform="matrix(-0.8455 0 0 -0.8061 1360.2283 362.3131)" style="overflow:visible;opacity:0.55;"/>
	
		<use xlink:href="#New_Symbol_5"  width="1.8" height="1.8" x="-0.9" y="-0.9" transform="matrix(-0.8455 0 0 -0.8061 1356.411 374.7592)" style="overflow:visible;opacity:0.55;"/>
	
		<use xlink:href="#New_Symbol_5"  width="1.8" height="1.8" x="-0.9" y="-0.9" transform="matrix(-0.8455 0 0 -0.8061 1355.1814 380.7397)" style="overflow:visible;opacity:0.55;"/>
	
		<use xlink:href="#New_Symbol_5"  width="1.8" height="1.8" x="-0.9" y="-0.9" transform="matrix(-0.8455 0 0 -0.8061 1417.9247 370.0703)" style="overflow:visible;opacity:0.55;"/>
	
		<use xlink:href="#New_Symbol_5"  width="1.8" height="1.8" x="-0.9" y="-0.9" transform="matrix(-0.8455 0 0 -0.8061 1300.6638 279.7156)" style="overflow:visible;opacity:0.55;"/>
	
		<use xlink:href="#New_Symbol_5"  width="1.8" height="1.8" x="-0.9" y="-0.9" transform="matrix(-0.8455 0 0 -0.8061 1278.2748 278.0677)" style="overflow:visible;opacity:0.55;"/>
	
		<use xlink:href="#New_Symbol_5"  width="1.8" height="1.8" x="-0.9" y="-0.9" transform="matrix(-0.8455 0 0 -0.8061 1198.8154 271.3127)" style="overflow:visible;opacity:0.55;"/>
	
		<use xlink:href="#New_Symbol_5"  width="1.8" height="1.8" x="-0.9" y="-0.9" transform="matrix(-0.8455 0 0 -0.8061 987.2209 282.4034)" style="overflow:visible;opacity:0.55;"/>
	
		<use xlink:href="#New_Symbol_5"  width="1.8" height="1.8" x="-0.9" y="-0.9" transform="matrix(-0.8455 0 0 -0.8061 928.8824 282.8395)" style="overflow:visible;opacity:0.55;"/>
	
		<use xlink:href="#New_Symbol_5"  width="1.8" height="1.8" x="-0.9" y="-0.9" transform="matrix(-0.8455 0 0 -0.8061 889.3307 279.78)" style="overflow:visible;opacity:0.55;"/>
	
		<use xlink:href="#New_Symbol_5"  width="1.8" height="1.8" x="-0.9" y="-0.9" transform="matrix(-0.8455 0 0 -0.8061 909.6263 296.2581)" style="overflow:visible;opacity:0.55;"/>
	
		<use xlink:href="#New_Symbol_5"  width="1.8" height="1.8" x="-0.9" y="-0.9" transform="matrix(-0.8455 0 0 -0.8061 911.8732 316.404)" style="overflow:visible;opacity:0.55;"/>
	
		<use xlink:href="#New_Symbol_5"  width="1.8" height="1.8" x="-0.9" y="-0.9" transform="matrix(-0.8455 0 0 -0.8061 908.3069 324.1842)" style="overflow:visible;opacity:0.55;"/>
	
		<use xlink:href="#New_Symbol_5"  width="1.8" height="1.8" x="-0.9" y="-0.9" transform="matrix(-0.8455 0 0 -0.8061 878.5662 356.4529)" style="overflow:visible;opacity:0.55;"/>
	
		<use xlink:href="#New_Symbol_5"  width="1.8" height="1.8" x="-0.9" y="-0.9" transform="matrix(-0.8455 0 0 -0.8061 877.4608 367.187)" style="overflow:visible;opacity:0.55;"/>
	
		<use xlink:href="#New_Symbol_5"  width="1.8" height="1.8" x="-0.9" y="-0.9" transform="matrix(-0.8455 0 0 -0.8061 928.0678 343.1684)" style="overflow:visible;opacity:0.55;"/>
	
		<use xlink:href="#New_Symbol_5"  width="1.8" height="1.8" x="-0.9" y="-0.9" transform="matrix(-0.8455 0 0 -0.8061 954.4373 326.798)" style="overflow:visible;opacity:0.55;"/>
	
		<use xlink:href="#New_Symbol_5"  width="1.8" height="1.8" x="-0.9" y="-0.9" transform="matrix(-0.8455 0 0 -0.8061 941.8803 321.5675)" style="overflow:visible;opacity:0.55;"/>
	
		<use xlink:href="#New_Symbol_5"  width="1.8" height="1.8" x="-0.9" y="-0.9" transform="matrix(-0.8455 0 0 -0.8061 877.6252 307.4631)" style="overflow:visible;opacity:0.55;"/>
	
		<use xlink:href="#New_Symbol_5"  width="1.8" height="1.8" x="-0.9" y="-0.9" transform="matrix(-0.8455 0 0 -0.8061 866.3792 304.2036)" style="overflow:visible;opacity:0.55;"/>
	
		<use xlink:href="#New_Symbol_5"  width="1.8" height="1.8" x="-0.9" y="-0.9" transform="matrix(-0.8455 0 0 -0.8061 866.644 299.1234)" style="overflow:visible;opacity:0.55;"/>
	
		<use xlink:href="#New_Symbol_5"  width="1.8" height="1.8" x="-0.9" y="-0.9" transform="matrix(-0.8455 0 0 -0.8061 860.576 349.0716)" style="overflow:visible;opacity:0.55;"/>
	
		<use xlink:href="#New_Symbol_5"  width="1.8" height="1.8" x="-0.9" y="-0.9" transform="matrix(-0.8455 0 0 -0.8061 853.3477 392.0953)" style="overflow:visible;opacity:0.55;"/>
	
		<use xlink:href="#New_Symbol_5"  width="1.8" height="1.8" x="-0.9" y="-0.9" transform="matrix(-0.8455 0 0 -0.8061 859.1264 398.7758)" style="overflow:visible;opacity:0.55;"/>
	
		<use xlink:href="#New_Symbol_5"  width="1.8" height="1.8" x="-0.9" y="-0.9" transform="matrix(-0.8455 0 0 -0.8061 877.5955 373.3628)" style="overflow:visible;opacity:0.55;"/>
	
		<use xlink:href="#New_Symbol_5"  width="1.8" height="1.8" x="-0.9" y="-0.9" transform="matrix(-0.8455 0 0 -0.8061 872.7962 405.6473)" style="overflow:visible;opacity:0.55;"/>
	
		<use xlink:href="#New_Symbol_5"  width="1.8" height="1.8" x="-0.9" y="-0.9" transform="matrix(-0.8455 0 0 -0.8061 848.5078 446.7757)" style="overflow:visible;opacity:0.55;"/>
	
		<use xlink:href="#New_Symbol_5"  width="1.8" height="1.8" x="-0.9" y="-0.9" transform="matrix(-0.8455 0 0 -0.8061 1093.5238 279.629)" style="overflow:visible;opacity:0.55;"/>
	
		<use xlink:href="#New_Symbol_5"  width="1.8" height="1.8" x="-0.9" y="-0.9" transform="matrix(-0.8455 0 0 -0.8061 1032.0098 283.3948)" style="overflow:visible;opacity:0.55;"/>
	
		<use xlink:href="#New_Symbol_5"  width="1.8" height="1.8" x="-0.9" y="-0.9" transform="matrix(-0.8455 0 0 -0.8061 1077.4038 295.2125)" style="overflow:visible;opacity:0.55;"/>
	
		<use xlink:href="#New_Symbol_5"  width="1.8" height="1.8" x="-0.9" y="-0.9" transform="matrix(-0.8455 0 0 -0.8061 1015.9864 300.0295)" style="overflow:visible;opacity:0.55;"/>
	
		<use xlink:href="#New_Symbol_5"  width="1.8" height="1.8" x="-0.9" y="-0.9" transform="matrix(-0.8455 0 0 -0.8061 1103.3484 321.1117)" style="overflow:visible;opacity:0.55;"/>
	
		<use xlink:href="#New_Symbol_5"  width="1.8" height="1.8" x="-0.9" y="-0.9" transform="matrix(-0.8455 0 0 -0.8061 1042.8402 330.7645)" style="overflow:visible;opacity:0.55;"/>
	
		<use xlink:href="#New_Symbol_5"  width="1.8" height="1.8" x="-0.9" y="-0.9" transform="matrix(-0.8455 0 0 -0.8061 1340.3165 466.2587)" style="overflow:visible;opacity:0.55;"/>
	
		<use xlink:href="#New_Symbol_5"  width="1.8" height="1.8" x="-0.9" y="-0.9" transform="matrix(-0.8455 0 0 -0.8061 920.0248 360.6302)" style="overflow:visible;opacity:0.55;"/>
	
		<use xlink:href="#New_Symbol_5"  width="1.8" height="1.8" x="-0.9" y="-0.9" transform="matrix(-0.8455 0 0 -0.8061 882.312 394.6767)" style="overflow:visible;opacity:0.55;"/>
	
		<use xlink:href="#New_Symbol_5"  width="1.8" height="1.8" x="-0.9" y="-0.9" transform="matrix(-0.8455 0 0 -0.8061 878.9829 432.9437)" style="overflow:visible;opacity:0.55;"/>
	
		<use xlink:href="#New_Symbol_5"  width="1.8" height="1.8" x="-0.9" y="-0.9" transform="matrix(-0.8455 0 0 -0.8061 846.7397 471.5951)" style="overflow:visible;opacity:0.55;"/>
	
		<use xlink:href="#New_Symbol_5"  width="1.8" height="1.8" x="-0.9" y="-0.9" transform="matrix(-0.8455 0 0 -0.8061 1428.4595 622.8745)" style="overflow:visible;opacity:0.55;"/>
	
		<use xlink:href="#New_Symbol_5"  width="1.8" height="1.8" x="-0.9" y="-0.9" transform="matrix(-0.8455 0 0 -0.8061 1511.8145 674.799)" style="overflow:visible;opacity:0.55;"/>
	
		<use xlink:href="#New_Symbol_5"  width="1.8" height="1.8" x="-0.9" y="-0.9" transform="matrix(-0.8455 0 0 -0.8061 1456.993 633.8022)" style="overflow:visible;opacity:0.55;"/>
	
		<use xlink:href="#New_Symbol_5"  width="1.8" height="1.8" x="-0.9" y="-0.9" transform="matrix(-0.8455 0 0 -0.8061 1469.1212 664.9789)" style="overflow:visible;opacity:0.55;"/>
	
		<use xlink:href="#New_Symbol_5"  width="1.8" height="1.8" x="-0.9" y="-0.9" transform="matrix(-0.8455 0 0 -0.8061 1462.1572 647.5421)" style="overflow:visible;opacity:0.55;"/>
	
		<use xlink:href="#New_Symbol_5"  width="1.8" height="1.8" x="-0.9" y="-0.9" transform="matrix(-0.8455 0 0 -0.8061 1440.3768 670.1928)" style="overflow:visible;opacity:0.55;"/>
	<polygon class="st2" points="1056,526.7 1135,530.8 1128.8,482.6 	"/>
	<polygon class="st2" points="994.3,473.1 1023.1,580.2 1099.7,520.1 	"/>
	<path class="st2" d="M945.6,362.7c1.4,0,93,22.3,93,22.3l-44.3,88.1l-95-78.6L945.6,362.7z"/>
	<polygon class="st2" points="1111.1,428.6 1038.6,385 994.3,473.1 	"/>
	<polygon class="st2" points="1099.7,520.1 994.3,473.1 1111.1,428.6 	"/>
	<polygon class="st2" points="1207.4,589.7 1135,530.8 1124.9,574.5 	"/>
	<polygon class="st2" points="1175.7,501.6 1207.4,589.7 1124.9,574.5 	"/>
	<path class="st2" d="M1077.4,654.1c2.4,0,130.4,49.8,130.1,48.4c-0.3-1.4,0-112.8,0-112.8L1077.4,654.1z"/>
	<polygon class="st2" points="942.6,531.5 994.3,473.1 1023.1,580.2 	"/>
	<polygon class="st2" points="899.4,394.5 994.3,473.1 915.7,506.8 	"/>
	<polygon class="st2" points="1023.1,580.2 920.3,660.8 915.7,506.8 	"/>
	<polygon class="st2" points="1124.9,574.5 1023.1,580.2 1099.7,520.1 	"/>
	<polygon class="st2" points="951.2,636.6 1077.4,654.1 1023.1,580.2 	"/>
	<polygon class="st2" points="1111.1,428.6 1128.8,482.6 1047,492.5 	"/>
	<polygon class="st2" points="1038.6,385 1026.7,440.4 1111.1,428.6 	"/>
	<polygon class="st2" points="1047,492.5 1026.7,440.4 1111.1,428.6 	"/>
	<polygon class="st2" points="945.6,362.7 1026.7,440.4 994.3,473.1 	"/>
	<polygon class="st2" points="1124.9,574.5 1056.4,526.7 1128.8,482.6 	"/>
	<polygon class="st2" points="1161.7,646.1 1124.9,574.5 1207.4,589.7 	"/>
	<polygon class="st2" points="1056.4,526.7 1023.1,580.2 1124.9,574.5 	"/>
	<polygon class="st2" points="1023.1,580.2 1061.4,720.1 951.2,636.6 	"/>
	<path class="st2" d="M849.7,533.8c0,0,24.4,116.1,25.8,116.1c1.4,0,44.7,10.9,44.7,10.9L849.7,533.8z"/>
	<polygon class="st2" points="1056.4,526.7 915.7,506.8 1047,492.5 	"/>
	<polygon class="st2" points="849.7,533.8 915.7,506.8 942.6,531.5 	"/>
	<polygon class="st2" points="899.4,394.5 849.7,533.8 915.7,506.8 	"/>
	<polyline class="st3" points="1259.8,343.3 1195.4,312.5 1161.1,387.4 1161.8,428.6 1111.1,428.6 	"/>
	<polygon class="st4" points="1061.4,307.8 1087.9,389.3 999.5,321.1 	"/>
	<polygon class="st5" points="1157.4,312.5 1111.7,293.1 1142.3,362.7 	"/>
	<polygon class="st5" points="1365.7,408.7 1339.7,420.7 1383.3,433.9 	"/>
	<polygon class="st5" points="1254.8,391.2 1210.1,358 1175.7,391.2 	"/>
	<polygon class="st5" points="1312.7,317.3 1280.2,293.1 1255,317.3 	"/>
	<polygon class="st5" points="1341.7,377.7 1347.1,343.5 1311.6,332.3 	"/>
	<polygon class="st2" points="1261.8,460.6 1215,426.7 1178.3,453.7 	"/>
	<polygon class="st2" points="1223.6,545.6 1232.5,502.3 1200.8,501.6 	"/>
	<polygon class="st5" points="1301.5,435.2 1306,453.7 1287.6,444.5 	"/>
	<polygon class="st5" points="1354.4,577.5 1374.1,580.7 1358.1,593.3 	"/>
	<polygon class="st5" points="1400.9,391.2 1420.6,394.3 1404.6,407 	"/>
	<polygon class="st5" points="1325.9,605.4 1304,548.5 1272.6,587.1 	"/>
	<polygon class="st5" points="1349.7,550.2 1433,535.8 1384.9,490 	"/>
	<polyline class="st6" points="1207.4,589.7 1245.8,542.8 1251.3,596.1 1287.6,495.4 1319.4,474.4 	"/>
	<polygon class="st2" points="1023.1,580.2 849.7,533.8 951.2,636.6 	"/>
	<polygon class="st2" points="875.6,649.9 912.9,585 920.3,660.8 	"/>
	<polygon class="st2" points="920.3,660.8 975.3,707.1 951.2,636.6 	"/>
	<polygon class="st2" points="912.9,585 991.1,630.6 920.3,660.8 	"/>
	<polygon class="st2" points="849.7,533.8 912.9,585 875.6,649.9 	"/>
	<polygon class="st2" points="1087.9,389.3 1038.6,385 1043.7,366.1 	"/>
	<polygon class="st2" points="1124.9,574.5 1023.1,580.2 1061.4,720.1 	"/>
	<polygon class="st2" points="1175.9,501.7 1135,530.8 1128.8,482.6 	"/>
	<polygon class="st2" points="1175.9,501.7 1099.7,520.1 1128.8,482.6 	"/>
	<polygon class="st2" points="1056,526.7 942.6,531.5 982.9,589.7 	"/>
	<polygon class="st2" points="991.1,630.6 982.9,589.7 1023.1,580.2 	"/>
	<polygon class="st2" points="912.9,585 982.9,589.7 991.1,630.6 	"/>
	<polygon class="st2" points="942.6,531.5 912.9,585 982.9,589.7 	"/>
	<polygon class="st2" points="1038.6,385 984.8,423.1 945.6,362.7 	"/>
	<polygon class="st2" points="899.4,394.5 984.8,423.1 915.7,506.8 	"/>
	<polygon class="st2" points="1026.7,440.4 984.8,423.1 994.3,473.1 	"/>
	<polygon class="st2" points="1124.9,574.5 1161.7,646.1 1077.4,654.1 	"/>
	<polygon class="st2" points="1207.4,702.4 1161.7,646.1 1077.4,654.1 	"/>
	<polygon class="st2" points="991.1,630.6 1077.4,654.1 1023.1,580.2 	"/>
	<ellipse class="st7" cx="1039.2" cy="384.7" rx="2.4" ry="2.3"/>
	<path class="st7" d="M1109.9,428.6c0,0.7,0.7,1.4,1.4,1.4s1.4-0.6,1.4-1.4s-0.7-1.4-1.4-1.4S1109.9,427.8,1109.9,428.6z"/>
	<ellipse class="st7" cx="850.4" cy="534.7" rx="4.3" ry="4.1"/>
	<path class="st7" d="M1173.3,501.5c0,1.6,1.3,2.7,2.9,2.7s2.9-1.3,2.9-2.7c0-1.6-1.3-2.7-2.9-2.7S1173.3,499.9,1173.3,501.5z"/>
	<ellipse class="st7" cx="1124.8" cy="574.3" rx="1.9" ry="1.8"/>
	<ellipse class="st7" cx="1077.7" cy="653.9" rx="1.9" ry="1.8"/>
	<ellipse class="st7" cx="1056.4" cy="526.5" rx="1.9" ry="1.8"/>
	<path class="st7" d="M941,531.2c0,1.1,0.9,1.8,1.9,1.8c1.1,0,1.9-0.8,1.9-1.8c0-1.1-0.9-1.8-1.9-1.8
		C941.9,529.3,941,530.2,941,531.2z"/>
	<ellipse class="st7" cx="1135.4" cy="530.6" rx="1.9" ry="1.8"/>
	<path class="st7" d="M1127.3,482.4c0,1.1,0.9,1.8,1.9,1.8c1.1,0,1.9-0.8,1.9-1.8c0-1.1-0.9-1.8-1.9-1.8
		C1128.1,480.6,1127.3,481.3,1127.3,482.4z"/>
	<path class="st7" d="M1243.8,543.6c0,1.1,0.9,1.8,1.9,1.8c1.1,0,1.9-0.8,1.9-1.8c0-1.1-0.9-1.8-1.9-1.8
		C1244.7,541.7,1243.8,542.5,1243.8,543.6z"/>
	<ellipse class="st7" cx="1326.3" cy="605.5" rx="1.9" ry="1.8"/>
	<ellipse class="st7" cx="1288" cy="496" rx="1.9" ry="1.8"/>
	<path class="st7" d="M1249.4,596c0,1.1,0.9,1.8,1.9,1.8s1.9-0.8,1.9-1.8c0-1.1-0.9-1.8-1.9-1.8S1249.4,595,1249.4,596z"/>
	<path class="st7" d="M1159.6,428.6c0,1.1,0.9,1.8,1.9,1.8s1.9-0.8,1.9-1.8c0-1.1-0.9-1.8-1.9-1.8S1159.6,427.6,1159.6,428.6z"/>
	<path class="st7" d="M1231,502.9c0,1.1,0.9,1.8,1.9,1.8s1.9-0.8,1.9-1.8c0-1.1-0.9-1.8-1.9-1.8S1231,501.9,1231,502.9z"/>
	<ellipse class="st7" cx="1262.2" cy="460.3" rx="1.9" ry="1.8"/>
	<path class="st7" d="M1159.6,387.1c0,1.1,0.9,1.8,1.9,1.8s1.9-0.8,1.9-1.8c0-1.1-0.9-1.8-1.9-1.8S1159.6,386.1,1159.6,387.1z"/>
	<path class="st7" d="M998,320.6c0,1.1,0.9,1.8,1.9,1.8s1.9-0.8,1.9-1.8s-0.9-1.8-1.9-1.8S998,319.6,998,320.6z"/>
	<ellipse class="st7" cx="1112.1" cy="292.8" rx="1.9" ry="1.8"/>
	<ellipse class="st7" cx="1195.8" cy="312.2" rx="1.9" ry="1.8"/>
	<path class="st7" d="M1205.8,702.3c0,1.1,0.9,1.8,1.9,1.8s1.9-0.8,1.9-1.8c0-1.1-0.9-1.8-1.9-1.8S1205.8,701.2,1205.8,702.3z"/>
	<ellipse class="st7" cx="1047.7" cy="492.3" rx="1.9" ry="1.8"/>
	<ellipse class="st7" cx="985.2" cy="422.8" rx="1.9" ry="1.8"/>
	<ellipse class="st7" cx="983.3" cy="589.5" rx="1.9" ry="1.8"/>
	<path class="st7" d="M1160.1,645.8c0,1.1,0.9,1.8,1.9,1.8s1.9-0.8,1.9-1.8c0-1.1-0.9-1.8-1.9-1.8S1160.1,644.9,1160.1,645.8z"/>
	<ellipse class="st7" cx="991.3" cy="630.3" rx="1.9" ry="1.8"/>
	<path class="st7" d="M1057.9,719.8c0,1.1,0.9,1.8,1.9,1.8c1.1,0,1.9-0.8,1.9-1.8c0-1.1-0.9-1.8-1.9-1.8
		C1058.8,717.9,1057.9,718.8,1057.9,719.8z"/>
	<path class="st7" d="M911.3,584.7c0,1.1,0.9,1.8,1.9,1.8c1.1,0,1.9-0.8,1.9-1.8c0-1.1-0.9-1.8-1.9-1.8
		C912.1,582.9,911.3,583.8,911.3,584.7z"/>
	<ellipse class="st7" cx="995.1" cy="473.4" rx="2.5" ry="2.4"/>
	<ellipse class="st7" cx="1100.1" cy="519.8" rx="1.9" ry="1.8"/>
	<ellipse class="st7" cx="916.1" cy="506.5" rx="3.8" ry="3.6"/>
	<ellipse class="st7" cx="1023.5" cy="580" rx="1.9" ry="1.8"/>
	<ellipse class="st7" cx="951.6" cy="637.5" rx="3.8" ry="3.6"/>
	<ellipse class="st7" cx="1027.6" cy="440.5" rx="1.9" ry="1.8"/>
	<path class="st7" d="M1204.5,589.6c0,1.6,1.3,2.7,2.9,2.7s2.9-1.3,2.9-2.7c0-1.6-1.3-2.7-2.9-2.7S1204.5,588.1,1204.5,589.6z"/>
	<path class="st7" d="M897.5,394c0,1.3,1.1,2.3,2.4,2.3s2.4-1.1,2.4-2.3c0-1.3-1.1-2.3-2.4-2.3S897.5,392.8,897.5,394z"/>
	<path class="st7" d="M943.6,362.5c0,1.3,1.1,2.3,2.4,2.3s2.4-1.1,2.4-2.3c0-1.3-1.1-2.3-2.4-2.3
		C944.7,360.2,943.6,361.2,943.6,362.5z"/>
	
		<use xlink:href="#New_Symbol_5"  width="1.8" height="1.8" x="-0.9" y="-0.9" transform="matrix(-0.8455 0 0 -0.7876 1397.0464 99.7813)" style="overflow:visible;"/>
	
		<use xlink:href="#New_Symbol_5"  width="1.8" height="1.8" x="-0.9" y="-0.9" transform="matrix(-0.8455 0 0 -0.7876 1426.7151 51.2785)" style="overflow:visible;opacity:0.55;"/>
	
		<use xlink:href="#New_Symbol_5"  width="1.8" height="1.8" x="-0.9" y="-0.9" transform="matrix(-0.8455 0 0 -0.7876 1412.8934 47.6326)" style="overflow:visible;opacity:0.55;"/>
	
		<use xlink:href="#New_Symbol_5"  width="1.8" height="1.8" x="-0.9" y="-0.9" transform="matrix(-0.8455 0 0 -0.7876 1406.519 28.9999)" style="overflow:visible;opacity:0.55;"/>
	
		<use xlink:href="#New_Symbol_5"  width="1.8" height="1.8" x="-0.9" y="-0.9" transform="matrix(-0.8455 0 0 -0.7876 1448.235 35.4311)" style="overflow:visible;opacity:0.55;"/>
	
		<use xlink:href="#New_Symbol_5"  width="1.8" height="1.8" x="-0.9" y="-0.9" transform="matrix(-0.8455 0 0 -0.7876 1453.3688 35.4621)" style="overflow:visible;opacity:0.55;"/>
	
		<use xlink:href="#New_Symbol_5"  width="1.8" height="1.8" x="-0.9" y="-0.9" transform="matrix(-0.8455 0 0 -0.7876 1474.748 88.535)" style="overflow:visible;opacity:0.55;"/>
	
		<use xlink:href="#New_Symbol_5"  width="1.8" height="1.8" x="-0.9" y="-0.9" transform="matrix(-0.8455 0 0 -0.7876 1458.7351 69.8082)" style="overflow:visible;opacity:0.55;"/>
	
		<use xlink:href="#New_Symbol_5"  width="1.8" height="1.8" x="-0.9" y="-0.9" transform="matrix(-0.8455 0 0 -0.7876 1455.493 80.1495)" style="overflow:visible;opacity:0.55;"/>
	
		<use xlink:href="#New_Symbol_5"  width="1.8" height="1.8" x="-0.9" y="-0.9" transform="matrix(-0.8455 0 0 -0.7876 1410.193 69.6441)" style="overflow:visible;opacity:0.55;"/>
	
		<use xlink:href="#New_Symbol_5"  width="1.8" height="1.8" x="-0.9" y="-0.9" transform="matrix(-0.8455 0 0 -0.7876 1382.802 52.3684)" style="overflow:visible;opacity:0.55;"/>
	
		<use xlink:href="#New_Symbol_5"  width="1.8" height="1.8" x="-0.9" y="-0.9" transform="matrix(-0.8455 0 0 -0.7876 1374.8213 43.1369)" style="overflow:visible;opacity:0.55;"/>
	
		<use xlink:href="#New_Symbol_5"  width="1.8" height="1.8" x="-0.9" y="-0.9" transform="matrix(-0.8455 0 0 -0.7876 1391.1844 23.5859)" style="overflow:visible;opacity:0.55;"/>
	
		<use xlink:href="#New_Symbol_5"  width="1.8" height="1.8" x="-0.9" y="-0.9" transform="matrix(-0.8455 0 0 -0.7876 1432.7874 5.0391)" style="overflow:visible;opacity:0.55;"/>
	
		<use xlink:href="#New_Symbol_5"  width="1.8" height="1.8" x="-0.9" y="-0.9" transform="matrix(-0.8455 0 0 -0.7876 1454.2218 7.1506)" style="overflow:visible;opacity:0.55;"/>
	
		<use xlink:href="#New_Symbol_5"  width="1.8" height="1.8" x="-0.9" y="-0.9" transform="matrix(-0.8455 0 0 -0.7876 1452.8099 1.1708)" style="overflow:visible;opacity:0.55;"/>
	
		<use xlink:href="#New_Symbol_5"  width="1.8" height="1.8" x="-0.9" y="-0.9" transform="matrix(-0.8455 0 0 -0.7876 1424.959 13.4203)" style="overflow:visible;opacity:0.55;"/>
	
		<use xlink:href="#New_Symbol_5"  width="1.8" height="1.8" x="-0.9" y="-0.9" transform="matrix(-0.8455 0 0 -0.7876 1368.8149 16.8254)" style="overflow:visible;opacity:0.55;"/>
	
		<use xlink:href="#New_Symbol_5"  width="1.8" height="1.8" x="-0.9" y="-0.9" transform="matrix(-0.8455 0 0 -0.7876 1342.9218 11.9979)" style="overflow:visible;opacity:0.55;"/>
	
		<use xlink:href="#New_Symbol_5"  width="1.8" height="1.8" x="-0.9" y="-0.9" transform="matrix(-0.8455 0 0 -0.7876 1454.6357 134.4467)" style="overflow:visible;opacity:0.55;"/>
	
		<use xlink:href="#New_Symbol_5"  width="1.8" height="1.8" x="-0.9" y="-0.9" transform="matrix(-0.8455 0 0 -0.7876 1459.594 152.6471)" style="overflow:visible;opacity:0.55;"/>
	
		<use xlink:href="#New_Symbol_5"  width="1.8" height="1.8" x="-0.9" y="-0.9" transform="matrix(-0.8455 0 0 -0.7876 1452.8596 170.0026)" style="overflow:visible;opacity:0.55;"/>
	
		<use xlink:href="#New_Symbol_5"  width="1.8" height="1.8" x="-0.9" y="-0.9" transform="matrix(-0.8455 0 0 -0.7876 1466.1068 191.5081)" style="overflow:visible;opacity:0.55;"/>
	
		<use xlink:href="#New_Symbol_5"  width="1.8" height="1.8" x="-0.9" y="-0.9" transform="matrix(-0.8455 0 0 -0.7876 1478.5026 211.29)" style="overflow:visible;opacity:0.55;"/>
	
		<use xlink:href="#New_Symbol_5"  width="1.8" height="1.8" x="-0.9" y="-0.9" transform="matrix(-0.8455 0 0 -0.7876 1482.3402 223.3268)" style="overflow:visible;opacity:0.55;"/>
	
		<use xlink:href="#New_Symbol_5"  width="1.8" height="1.8" x="-0.9" y="-0.9" transform="matrix(-0.8455 0 0 -0.7876 1428.7454 193.2173)" style="overflow:visible;opacity:0.55;"/>
	
		<use xlink:href="#New_Symbol_5"  width="1.8" height="1.8" x="-0.9" y="-0.9" transform="matrix(-0.8455 0 0 -0.7876 1423.3483 187.0766)" style="overflow:visible;opacity:0.55;"/>
	
		<use xlink:href="#New_Symbol_5"  width="1.8" height="1.8" x="-0.9" y="-0.9" transform="matrix(-0.8455 0 0 -0.7876 1398.9723 187.0285)" style="overflow:visible;opacity:0.55;"/>
	
		<use xlink:href="#New_Symbol_5"  width="1.8" height="1.8" x="-0.9" y="-0.9" transform="matrix(-0.8455 0 0 -0.7876 1395.5378 179.3461)" style="overflow:visible;opacity:0.55;"/>
	
		<use xlink:href="#New_Symbol_5"  width="1.8" height="1.8" x="-0.9" y="-0.9" transform="matrix(-0.8455 0 0 -0.7876 1409.6963 161.6573)" style="overflow:visible;opacity:0.55;"/>
	
		<use xlink:href="#New_Symbol_5"  width="1.8" height="1.8" x="-0.9" y="-0.9" transform="matrix(-0.8455 0 0 -0.7876 1396.6049 165.0759)" style="overflow:visible;opacity:0.55;"/>
	
		<use xlink:href="#New_Symbol_5"  width="1.8" height="1.8" x="-0.9" y="-0.9" transform="matrix(-0.8455 0 0 -0.7876 1378.2152 171.4238)" style="overflow:visible;opacity:0.55;"/>
	
		<use xlink:href="#New_Symbol_5"  width="1.8" height="1.8" x="-0.9" y="-0.9" transform="matrix(-0.8455 0 0 -0.7876 1371.3289 181.052)" style="overflow:visible;opacity:0.55;"/>
	
		<use xlink:href="#New_Symbol_5"  width="1.8" height="1.8" x="-0.9" y="-0.9" transform="matrix(-0.8455 0 0 -0.7876 1395.1573 194.0434)" style="overflow:visible;opacity:0.55;"/>
	
		<use xlink:href="#New_Symbol_5"  width="1.8" height="1.8" x="-0.9" y="-0.9" transform="matrix(-0.8455 0 0 -0.7876 1463.583 216.1112)" style="overflow:visible;opacity:0.55;"/>
	
		<use xlink:href="#New_Symbol_5"  width="1.8" height="1.8" x="-0.9" y="-0.9" transform="matrix(-0.8455 0 0 -0.7876 1469.6624 241.6199)" style="overflow:visible;opacity:0.55;"/>
	
		<use xlink:href="#New_Symbol_5"  width="1.8" height="1.8" x="-0.9" y="-0.9" transform="matrix(-0.8455 0 0 -0.7876 1442.8529 239.3936)" style="overflow:visible;opacity:0.55;"/>
	
		<use xlink:href="#New_Symbol_5"  width="1.8" height="1.8" x="-0.9" y="-0.9" transform="matrix(-0.8455 0 0 -0.7876 1414.6323 215.1855)" style="overflow:visible;opacity:0.55;"/>
	
		<use xlink:href="#New_Symbol_5"  width="1.8" height="1.8" x="-0.9" y="-0.9" transform="matrix(-0.8455 0 0 -0.7876 1413.2734 221.7274)" style="overflow:visible;opacity:0.55;"/>
	
		<use xlink:href="#New_Symbol_5"  width="1.8" height="1.8" x="-0.9" y="-0.9" transform="matrix(-0.8455 0 0 -0.7876 1441.8254 249.715)" style="overflow:visible;opacity:0.55;"/>
	
		<use xlink:href="#New_Symbol_5"  width="1.8" height="1.8" x="-0.9" y="-0.9" transform="matrix(-0.8455 0 0 -0.7876 1456.1747 296.0347)" style="overflow:visible;opacity:0.55;"/>
	
		<use xlink:href="#New_Symbol_5"  width="1.8" height="1.8" x="-0.9" y="-0.9" transform="matrix(-0.8455 0 0 -0.7876 1477.8458 315.9209)" style="overflow:visible;opacity:0.55;"/>
	
		<use xlink:href="#New_Symbol_5"  width="1.8" height="1.8" x="-0.9" y="-0.9" transform="matrix(-0.8455 0 0 -0.7876 1443.7988 320.3156)" style="overflow:visible;opacity:0.55;"/>
	
		<use xlink:href="#New_Symbol_5"  width="1.8" height="1.8" x="-0.9" y="-0.9" transform="matrix(-0.8455 0 0 -0.7876 1401.4922 324.0907)" style="overflow:visible;opacity:0.55;"/>
	
		<use xlink:href="#New_Symbol_5"  width="1.8" height="1.8" x="-0.9" y="-0.9" transform="matrix(-0.8455 0 0 -0.7876 1403.0652 272.92)" style="overflow:visible;opacity:0.55;"/>
	
		<use xlink:href="#New_Symbol_5"  width="1.8" height="1.8" x="-0.9" y="-0.9" transform="matrix(-0.8455 0 0 -0.7876 1385.0004 299.411)" style="overflow:visible;opacity:0.55;"/>
	
		<use xlink:href="#New_Symbol_5"  width="1.8" height="1.8" x="-0.9" y="-0.9" transform="matrix(-0.8455 0 0 -0.7876 1388.651 316.982)" style="overflow:visible;opacity:0.55;"/>
	
		<use xlink:href="#New_Symbol_5"  width="1.8" height="1.8" x="-0.9" y="-0.9" transform="matrix(-0.8455 0 0 -0.7876 1384.1479 346.5727)" style="overflow:visible;opacity:0.55;"/>
	
		<use xlink:href="#New_Symbol_5"  width="1.8" height="1.8" x="-0.9" y="-0.9" transform="matrix(-0.8455 0 0 -0.7876 1408.585 364.7373)" style="overflow:visible;opacity:0.55;"/>
	
		<use xlink:href="#New_Symbol_5"  width="1.8" height="1.8" x="-0.9" y="-0.9" transform="matrix(-0.8455 0 0 -0.7876 1442.1763 378.1855)" style="overflow:visible;opacity:0.55;"/>
	
		<use xlink:href="#New_Symbol_5"  width="1.8" height="1.8" x="-0.9" y="-0.9" transform="matrix(-0.8455 0 0 -0.7876 1419.3197 299.5656)" style="overflow:visible;opacity:0.55;"/>
	
		<use xlink:href="#New_Symbol_5"  width="1.8" height="1.8" x="-0.9" y="-0.9" transform="matrix(-0.8455 0 0 -0.7876 1364.9805 89.6294)" style="overflow:visible;opacity:0.55;"/>
	
		<use xlink:href="#New_Symbol_5"  width="1.8" height="1.8" x="-0.9" y="-0.9" transform="matrix(-0.8455 0 0 -0.7876 1361.1633 101.7911)" style="overflow:visible;opacity:0.55;"/>
	
		<use xlink:href="#New_Symbol_5"  width="1.8" height="1.8" x="-0.9" y="-0.9" transform="matrix(-0.8455 0 0 -0.7876 1359.9336 107.635)" style="overflow:visible;opacity:0.55;"/>
	
		<use xlink:href="#New_Symbol_5"  width="1.8" height="1.8" x="-0.9" y="-0.9" transform="matrix(-0.8455 0 0 -0.7876 1422.6769 97.2094)" style="overflow:visible;opacity:0.55;"/>
	
		<use xlink:href="#New_Symbol_5"  width="1.8" height="1.8" x="-0.9" y="-0.9" transform="matrix(-0.8455 0 0 -0.7876 1305.416 8.9197)" style="overflow:visible;opacity:0.55;"/>
	
		<use xlink:href="#New_Symbol_5"  width="1.8" height="1.8" x="-0.9" y="-0.9" transform="matrix(-0.8455 0 0 -0.7876 1283.0271 7.3094)" style="overflow:visible;opacity:0.55;"/>
	
		<use xlink:href="#New_Symbol_5"  width="1.8" height="1.8" x="-0.9" y="-0.9" transform="matrix(-0.8455 0 0 -0.7876 1203.5676 0.7088)" style="overflow:visible;opacity:0.55;"/>
	
		<use xlink:href="#New_Symbol_5"  width="1.8" height="1.8" x="-0.9" y="-0.9" transform="matrix(-0.8455 0 0 -0.7876 991.9732 11.546)" style="overflow:visible;opacity:0.55;"/>
	
		<use xlink:href="#New_Symbol_5"  width="1.8" height="1.8" x="-0.9" y="-0.9" transform="matrix(-0.8455 0 0 -0.7876 933.6346 11.9722)" style="overflow:visible;opacity:0.55;"/>
	
		<use xlink:href="#New_Symbol_5"  width="1.8" height="1.8" x="-0.9" y="-0.9" transform="matrix(-0.8455 0 0 -0.7876 894.083 8.9826)" style="overflow:visible;opacity:0.55;"/>
	
		<use xlink:href="#New_Symbol_5"  width="1.8" height="1.8" x="-0.9" y="-0.9" transform="matrix(-0.8455 0 0 -0.7876 914.3785 25.0841)" style="overflow:visible;opacity:0.55;"/>
	
		<use xlink:href="#New_Symbol_5"  width="1.8" height="1.8" x="-0.9" y="-0.9" transform="matrix(-0.8455 0 0 -0.7876 916.6255 44.7696)" style="overflow:visible;opacity:0.55;"/>
	
		<use xlink:href="#New_Symbol_5"  width="1.8" height="1.8" x="-0.9" y="-0.9" transform="matrix(-0.8455 0 0 -0.7876 913.0591 52.3719)" style="overflow:visible;opacity:0.55;"/>
	
		<use xlink:href="#New_Symbol_5"  width="1.8" height="1.8" x="-0.9" y="-0.9" transform="matrix(-0.8455 0 0 -0.7876 883.3185 83.9032)" style="overflow:visible;opacity:0.55;"/>
	
		<use xlink:href="#New_Symbol_5"  width="1.8" height="1.8" x="-0.9" y="-0.9" transform="matrix(-0.8455 0 0 -0.7876 882.2131 94.3919)" style="overflow:visible;opacity:0.55;"/>
	
		<use xlink:href="#New_Symbol_5"  width="1.8" height="1.8" x="-0.9" y="-0.9" transform="matrix(-0.8455 0 0 -0.7876 932.82 70.9223)" style="overflow:visible;opacity:0.55;"/>
	
		<use xlink:href="#New_Symbol_5"  width="1.8" height="1.8" x="-0.9" y="-0.9" transform="matrix(-0.8455 0 0 -0.7876 959.1895 54.926)" style="overflow:visible;opacity:0.55;"/>
	
		<use xlink:href="#New_Symbol_5"  width="1.8" height="1.8" x="-0.9" y="-0.9" transform="matrix(-0.8455 0 0 -0.7876 946.6325 49.8151)" style="overflow:visible;opacity:0.55;"/>
	
		<use xlink:href="#New_Symbol_5"  width="1.8" height="1.8" x="-0.9" y="-0.9" transform="matrix(-0.8455 0 0 -0.7876 882.3774 36.033)" style="overflow:visible;opacity:0.55;"/>
	
		<use xlink:href="#New_Symbol_5"  width="1.8" height="1.8" x="-0.9" y="-0.9" transform="matrix(-0.8455 0 0 -0.7876 871.1313 32.8481)" style="overflow:visible;opacity:0.55;"/>
	
		<use xlink:href="#New_Symbol_5"  width="1.8" height="1.8" x="-0.9" y="-0.9" transform="matrix(-0.8455 0 0 -0.7876 871.3961 27.8839)" style="overflow:visible;opacity:0.55;"/>
	
		<use xlink:href="#New_Symbol_5"  width="1.8" height="1.8" x="-0.9" y="-0.9" transform="matrix(-0.8455 0 0 -0.7876 865.3283 76.6905)" style="overflow:visible;opacity:0.55;"/>
	
		<use xlink:href="#New_Symbol_5"  width="1.8" height="1.8" x="-0.9" y="-0.9" transform="matrix(-0.8455 0 0 -0.7876 858.0999 118.731)" style="overflow:visible;opacity:0.55;"/>
	
		<use xlink:href="#New_Symbol_5"  width="1.8" height="1.8" x="-0.9" y="-0.9" transform="matrix(-0.8455 0 0 -0.7876 863.8786 125.2589)" style="overflow:visible;opacity:0.55;"/>
	
		<use xlink:href="#New_Symbol_5"  width="1.8" height="1.8" x="-0.9" y="-0.9" transform="matrix(-0.8455 0 0 -0.7876 882.3477 100.4266)" style="overflow:visible;opacity:0.55;"/>
	
		<use xlink:href="#New_Symbol_5"  width="1.8" height="1.8" x="-0.9" y="-0.9" transform="matrix(-0.8455 0 0 -0.7876 877.5484 131.9732)" style="overflow:visible;opacity:0.55;"/>
	
		<use xlink:href="#New_Symbol_5"  width="1.8" height="1.8" x="-0.9" y="-0.9" transform="matrix(-0.8455 0 0 -0.7876 853.26 172.1617)" style="overflow:visible;opacity:0.55;"/>
	
		<use xlink:href="#New_Symbol_5"  width="1.8" height="1.8" x="-0.9" y="-0.9" transform="matrix(-0.8455 0 0 -0.7876 1098.2761 8.8351)" style="overflow:visible;opacity:0.55;"/>
	
		<use xlink:href="#New_Symbol_5"  width="1.8" height="1.8" x="-0.9" y="-0.9" transform="matrix(-0.8455 0 0 -0.7876 1036.762 12.5148)" style="overflow:visible;opacity:0.55;"/>
	
		<use xlink:href="#New_Symbol_5"  width="1.8" height="1.8" x="-0.9" y="-0.9" transform="matrix(-0.8455 0 0 -0.7876 1082.1561 24.0624)" style="overflow:visible;opacity:0.55;"/>
	
		<use xlink:href="#New_Symbol_5"  width="1.8" height="1.8" x="-0.9" y="-0.9" transform="matrix(-0.8455 0 0 -0.7876 1020.7387 28.7693)" style="overflow:visible;opacity:0.55;"/>
	
		<use xlink:href="#New_Symbol_5"  width="1.8" height="1.8" x="-0.9" y="-0.9" transform="matrix(-0.8455 0 0 -0.7876 1108.1006 49.3697)" style="overflow:visible;opacity:0.55;"/>
	
		<use xlink:href="#New_Symbol_5"  width="1.8" height="1.8" x="-0.9" y="-0.9" transform="matrix(-0.8455 0 0 -0.7876 1047.5924 58.8018)" style="overflow:visible;opacity:0.55;"/>
	
		<use xlink:href="#New_Symbol_5"  width="1.8" height="1.8" x="-0.9" y="-0.9" transform="matrix(-0.8455 0 0 -0.7876 1345.0687 191.1994)" style="overflow:visible;opacity:0.55;"/>
	
		<use xlink:href="#New_Symbol_5"  width="1.8" height="1.8" x="-0.9" y="-0.9" transform="matrix(-0.8455 0 0 -0.7876 924.7771 87.9849)" style="overflow:visible;opacity:0.55;"/>
	
		<use xlink:href="#New_Symbol_5"  width="1.8" height="1.8" x="-0.9" y="-0.9" transform="matrix(-0.8455 0 0 -0.7876 887.0643 121.2533)" style="overflow:visible;opacity:0.55;"/>
	
		<use xlink:href="#New_Symbol_5"  width="1.8" height="1.8" x="-0.9" y="-0.9" transform="matrix(-0.8455 0 0 -0.7876 883.7352 158.6458)" style="overflow:visible;opacity:0.55;"/>
	
		<use xlink:href="#New_Symbol_5"  width="1.8" height="1.8" x="-0.9" y="-0.9" transform="matrix(-0.8455 0 0 -0.7876 851.492 196.4138)" style="overflow:visible;opacity:0.55;"/>
	
		<use xlink:href="#New_Symbol_5"  width="1.8" height="1.8" x="-0.9" y="-0.9" transform="matrix(-0.8455 0 0 -0.7876 1433.2117 344.2356)" style="overflow:visible;opacity:0.55;"/>
	
		<use xlink:href="#New_Symbol_5"  width="1.8" height="1.8" x="-0.9" y="-0.9" transform="matrix(-0.8455 0 0 -0.7876 1516.5667 394.9735)" style="overflow:visible;opacity:0.55;"/>
	
		<use xlink:href="#New_Symbol_5"  width="1.8" height="1.8" x="-0.9" y="-0.9" transform="matrix(-0.8455 0 0 -0.7876 1461.7452 354.9137)" style="overflow:visible;opacity:0.55;"/>
	
		<use xlink:href="#New_Symbol_5"  width="1.8" height="1.8" x="-0.9" y="-0.9" transform="matrix(-0.8455 0 0 -0.7876 1473.8735 385.3778)" style="overflow:visible;opacity:0.55;"/>
	
		<use xlink:href="#New_Symbol_5"  width="1.8" height="1.8" x="-0.9" y="-0.9" transform="matrix(-0.8455 0 0 -0.7876 1466.9094 368.3395)" style="overflow:visible;opacity:0.55;"/>
	
		<use xlink:href="#New_Symbol_5"  width="1.8" height="1.8" x="-0.9" y="-0.9" transform="matrix(-0.8455 0 0 -0.7876 1445.1292 390.4726)" style="overflow:visible;opacity:0.55;"/>
	<polygon class="st2" points="1060.8,250.3 1139.8,254.3 1133.6,207.2 	"/>
	<polygon class="st2" points="999.1,197.9 1027.9,302.6 1104.5,243.8 	"/>
	<path class="st2" d="M950.4,90c1.4,0,93,21.8,93,21.8l-44.3,86.1l-95-76.8L950.4,90z"/>
	<polygon class="st2" points="1115.9,154.4 1043.4,111.8 999.1,197.9 	"/>
	<polygon class="st2" points="1104.5,243.8 999.1,197.9 1115.9,154.4 	"/>
	<polygon class="st2" points="1212.2,311.9 1139.8,254.3 1129.6,297 	"/>
	<polygon class="st2" points="1180.4,225.7 1212.2,311.9 1129.6,297 	"/>
	<path class="st2" d="M1082.1,374.8c2.4,0,130.4,48.7,130.1,47.3c-0.3-1.3,0-110.2,0-110.2L1082.1,374.8z"/>
	<polygon class="st2" points="947.4,254.9 999.1,197.9 1027.9,302.6 	"/>
	<polygon class="st2" points="904.1,121.1 999.1,197.9 920.5,230.8 	"/>
	<polygon class="st2" points="1027.9,302.6 925,381.3 920.5,230.8 	"/>
	<polygon class="st2" points="1129.6,297 1027.9,302.6 1104.5,243.8 	"/>
	<polygon class="st2" points="955.9,357.6 1082.1,374.8 1027.9,302.6 	"/>
	<polygon class="st2" points="1115.9,154.4 1133.6,207.2 1051.8,216.9 	"/>
	<polygon class="st2" points="1043.4,111.8 1031.4,165.9 1115.9,154.4 	"/>
	<polygon class="st2" points="1051.8,216.9 1031.4,165.9 1115.9,154.4 	"/>
	<polygon class="st2" points="950.4,90 1031.4,165.9 999.1,197.9 	"/>
	<polygon class="st2" points="1129.6,297 1061.2,250.3 1133.6,207.2 	"/>
	<polygon class="st2" points="1166.5,366.9 1129.6,297 1212.2,311.9 	"/>
	<polygon class="st2" points="1061.2,250.3 1027.9,302.6 1129.6,297 	"/>
	<polygon class="st2" points="1027.9,302.6 1066.2,439.2 955.9,357.6 	"/>
	<path class="st2" d="M854.4,257.2c0,0,24.4,113.4,25.8,113.4c1.4,0,44.7,10.6,44.7,10.6L854.4,257.2z"/>
	<polygon class="st2" points="1061.2,250.3 920.5,230.8 1051.8,216.9 	"/>
	<polygon class="st2" points="854.4,257.2 920.5,230.8 947.4,254.9 	"/>
	<polygon class="st2" points="904.1,121.1 854.4,257.2 920.5,230.8 	"/>
	<polyline class="st3" points="1264.5,71.1 1200.1,41 1165.8,114.2 1166.6,154.4 1115.9,154.4 	"/>
	<polygon class="st4" points="1066.2,36.3 1092.6,116 1004.3,49.3 	"/>
	<polygon class="st5" points="1162.2,41 1116.4,22 1147.1,90 	"/>
	<polygon class="st5" points="1370.5,135 1344.5,146.7 1388.1,159.5 	"/>
	<polygon class="st5" points="1259.6,117.9 1214.8,85.4 1180.4,117.9 	"/>
	<polygon class="st5" points="1317.5,45.6 1284.9,22 1259.8,45.6 	"/>
	<polygon class="st5" points="1346.5,104.7 1351.9,71.3 1316.4,60.3 	"/>
	<polygon class="st2" points="1266.5,185.6 1219.7,152.5 1183.1,178.9 	"/>
	<polygon class="st2" points="1228.4,268.8 1237.2,226.4 1205.5,225.7 	"/>
	<polygon class="st5" points="1306.3,160.9 1310.7,178.9 1292.3,170 	"/>
	<polygon class="st5" points="1359.2,299.9 1378.9,303 1362.8,315.4 	"/>
	<polygon class="st5" points="1405.7,117.9 1425.4,120.9 1409.3,133.3 	"/>
	<polygon class="st5" points="1330.6,327.1 1308.7,271.5 1277.4,309.3 	"/>
	<polygon class="st5" points="1354.4,273.2 1437.8,259.2 1389.6,214.4 	"/>
	<polyline class="st6" points="1212.2,311.9 1250.6,266 1256,318 1292.3,219.7 1324.1,199.1 	"/>
	<polygon class="st2" points="1027.9,302.6 854.4,257.2 955.9,357.6 	"/>
	<polygon class="st2" points="880.3,370.6 917.6,307.2 925,381.3 	"/>
	<polygon class="st2" points="925,381.3 980.1,426.5 955.9,357.6 	"/>
	<polygon class="st2" points="917.6,307.2 995.9,351.8 925,381.3 	"/>
	<polygon class="st2" points="854.4,257.2 917.6,307.2 880.3,370.6 	"/>
	<polygon class="st2" points="1092.6,116 1043.4,111.8 1048.5,93.3 	"/>
	<polygon class="st2" points="1129.6,297 1027.9,302.6 1066.2,439.2 	"/>
	<polygon class="st2" points="1180.6,225.9 1139.8,254.3 1133.6,207.2 	"/>
	<polygon class="st2" points="1180.6,225.9 1104.5,243.8 1133.6,207.2 	"/>
	<polygon class="st2" points="1060.8,250.3 947.4,254.9 987.7,311.9 	"/>
	<polygon class="st2" points="995.9,351.8 987.7,311.9 1027.9,302.6 	"/>
	<polygon class="st2" points="917.6,307.2 987.7,311.9 995.9,351.8 	"/>
	<polygon class="st2" points="947.4,254.9 917.6,307.2 987.7,311.9 	"/>
	<polygon class="st2" points="1043.4,111.8 989.6,149 950.4,90 	"/>
	<polygon class="st2" points="904.1,121.1 989.6,149 920.5,230.8 	"/>
	<polygon class="st2" points="1031.4,165.9 989.6,149 999.1,197.9 	"/>
	<polygon class="st2" points="1129.6,297 1166.5,366.9 1082.1,374.8 	"/>
	<polygon class="st2" points="1212.2,422 1166.5,366.9 1082.1,374.8 	"/>
	<polygon class="st2" points="995.9,351.8 1082.1,374.8 1027.9,302.6 	"/>
	<ellipse class="st8" cx="1043.6" cy="111.8" rx="2.4" ry="2.3"/>
	<path class="st8" d="M1114.2,154.7c0,0.7,0.7,1.3,1.4,1.3c0.8,0,1.4-0.6,1.4-1.3s-0.7-1.3-1.4-1.3
		C1114.9,153.4,1114.2,153.9,1114.2,154.7z"/>
	<ellipse class="st8" cx="854.7" cy="258.3" rx="4.3" ry="4"/>
	<path class="st8" d="M1177.7,225.9c0,1.5,1.3,2.7,2.9,2.7s2.9-1.2,2.9-2.7s-1.3-2.7-2.9-2.7S1177.7,224.3,1177.7,225.9z"/>
	<ellipse class="st2" cx="1129.2" cy="297" rx="1.9" ry="1.8"/>
	<ellipse class="st2" cx="1082.1" cy="374.8" rx="1.9" ry="1.8"/>
	<ellipse class="st8" cx="1060.8" cy="250.3" rx="1.9" ry="1.8"/>
	<path class="st8" d="M945.4,254.9c0,1,0.9,1.8,1.9,1.8c1.1,0,1.9-0.8,1.9-1.8s-0.9-1.8-1.9-1.8
		C946.3,253.1,945.4,253.9,945.4,254.9z"/>
	<ellipse class="st2" cx="1139.8" cy="254.3" rx="1.9" ry="1.8"/>
	<path class="st8" d="M1131.7,207.2c0,1,0.9,1.8,1.9,1.8c1.1,0,1.9-0.8,1.9-1.8s-0.9-1.8-1.9-1.8
		C1132.5,205.4,1131.7,206.2,1131.7,207.2z"/>
	<path class="st2" d="M1248.2,267c0,1,0.9,1.8,1.9,1.8c1.1,0,1.9-0.8,1.9-1.8s-0.9-1.8-1.9-1.8C1249.1,265.1,1248.2,266,1248.2,267z
		"/>
	<ellipse class="st2" cx="1330.6" cy="327.5" rx="1.9" ry="1.8"/>
	<ellipse class="st2" cx="1292.3" cy="220.5" rx="1.9" ry="1.8"/>
	<path class="st2" d="M1253.8,318.2c0,1,0.9,1.8,1.9,1.8s1.9-0.8,1.9-1.8s-0.9-1.8-1.9-1.8S1253.8,317.2,1253.8,318.2z"/>
	<path class="st8" d="M1164.6,153.8c0,1,0.9,1.8,1.9,1.8s1.9-0.8,1.9-1.8s-0.9-1.8-1.9-1.8S1164.6,152.8,1164.6,153.8z"/>
	<path class="st8" d="M1235.3,227.3c0,1,0.9,1.8,1.9,1.8s1.9-0.8,1.9-1.8s-0.9-1.8-1.9-1.8S1235.3,226.3,1235.3,227.3z"/>
	<ellipse class="st8" cx="1266.5" cy="185.6" rx="1.9" ry="1.8"/>
	<path class="st8" d="M1163.9,114.1c0,1,0.9,1.8,1.9,1.8s1.9-0.8,1.9-1.8s-0.9-1.8-1.9-1.8S1163.9,113.1,1163.9,114.1z"/>
	<path class="st8" d="M1002.4,49.1c0,1,0.9,1.8,1.9,1.8s1.9-0.8,1.9-1.8s-0.9-1.8-1.9-1.8C1003.3,47.4,1002.4,48.2,1002.4,49.1z"/>
	<ellipse class="st2" cx="1116.4" cy="22" rx="1.9" ry="1.8"/>
	<ellipse class="st8" cx="1200.1" cy="41" rx="1.9" ry="1.8"/>
	<path class="st2" d="M1210.2,422.1c0,1,0.9,1.8,1.9,1.8s1.9-0.8,1.9-1.8s-0.9-1.8-1.9-1.8S1210.2,421.1,1210.2,422.1z"/>
	<ellipse class="st8" cx="1052.1" cy="216.9" rx="1.9" ry="1.8"/>
	<ellipse class="st8" cx="989.6" cy="149" rx="1.9" ry="1.8"/>
	<ellipse class="st8" cx="987.7" cy="311.9" rx="1.9" ry="1.8"/>
	<path class="st2" d="M1164.5,366.9c0,1,0.9,1.8,1.9,1.8s1.9-0.8,1.9-1.8s-0.9-1.8-1.9-1.8C1165.4,365.2,1164.5,366,1164.5,366.9z"
		/>
	<ellipse class="st2" cx="995.7" cy="351.8" rx="1.9" ry="1.8"/>
	<path class="st8" d="M1064.3,439.1c0,1,0.9,1.8,1.9,1.8c1.1,0,1.9-0.8,1.9-1.8s-0.9-1.8-1.9-1.8S1064.3,438.1,1064.3,439.1z"/>
	<path class="st8" d="M915.6,307.2c0,1,0.9,1.8,1.9,1.8c1.1,0,1.9-0.8,1.9-1.8s-0.9-1.8-1.9-1.8
		C916.5,305.5,915.6,306.3,915.6,307.2z"/>
	<ellipse class="st8" cx="999.4" cy="198.4" rx="2.5" ry="2.4"/>
	<ellipse class="st8" cx="1104.5" cy="243.8" rx="1.9" ry="1.8"/>
	<ellipse class="st8" cx="920.5" cy="230.8" rx="3.8" ry="3.5"/>
	<ellipse class="st8" cx="1027.9" cy="302.6" rx="1.9" ry="1.8"/>
	<ellipse class="st8" cx="955.9" cy="358.8" rx="3.8" ry="3.5"/>
	<ellipse class="st8" cx="1032" cy="166.2" rx="1.9" ry="1.8"/>
	<path class="st2" d="M1208.9,312c0,1.5,1.3,2.7,2.9,2.7s2.9-1.2,2.9-2.7s-1.3-2.7-2.9-2.7S1208.9,310.5,1208.9,312z"/>
	<path class="st8" d="M901.9,120.9c0,1.2,1.1,2.3,2.4,2.3c1.3,0,2.4-1,2.4-2.3c0-1.2-1.1-2.3-2.4-2.3
		C903,118.6,901.9,119.6,901.9,120.9z"/>
	<path class="st8" d="M947.9,90c0,1.2,1.1,2.3,2.4,2.3s2.4-1,2.4-2.3c0-1.2-1.1-2.3-2.4-2.3C949.1,87.8,947.9,88.8,947.9,90z"/>
</g>
<g class="st1">
	
		<use xlink:href="#New_Symbol_5"  width="1.8" height="1.8" x="-0.9" y="-0.9" transform="matrix(0.8455 0 0 0.8061 125.0335 400.0124)" style="overflow:visible;"/>
	
		<use xlink:href="#New_Symbol_5"  width="1.8" height="1.8" x="-0.9" y="-0.9" transform="matrix(0.8455 0 0 0.8061 95.3648 449.6496)" style="overflow:visible;opacity:0.55;"/>
	
		<use xlink:href="#New_Symbol_5"  width="1.8" height="1.8" x="-0.9" y="-0.9" transform="matrix(0.8455 0 0 0.8061 109.1865 453.3808)" style="overflow:visible;opacity:0.55;"/>
	
		<use xlink:href="#New_Symbol_5"  width="1.8" height="1.8" x="-0.9" y="-0.9" transform="matrix(0.8455 0 0 0.8061 115.5609 472.4493)" style="overflow:visible;opacity:0.55;"/>
	
		<use xlink:href="#New_Symbol_5"  width="1.8" height="1.8" x="-0.9" y="-0.9" transform="matrix(0.8455 0 0 0.8061 73.8449 465.8677)" style="overflow:visible;opacity:0.55;"/>
	
		<use xlink:href="#New_Symbol_5"  width="1.8" height="1.8" x="-0.9" y="-0.9" transform="matrix(0.8455 0 0 0.8061 68.7111 465.836)" style="overflow:visible;opacity:0.55;"/>
	
		<use xlink:href="#New_Symbol_5"  width="1.8" height="1.8" x="-0.9" y="-0.9" transform="matrix(0.8455 0 0 0.8061 47.3317 411.5217)" style="overflow:visible;opacity:0.55;"/>
	
		<use xlink:href="#New_Symbol_5"  width="1.8" height="1.8" x="-0.9" y="-0.9" transform="matrix(0.8455 0 0 0.8061 63.3447 430.6865)" style="overflow:visible;opacity:0.55;"/>
	
		<use xlink:href="#New_Symbol_5"  width="1.8" height="1.8" x="-0.9" y="-0.9" transform="matrix(0.8455 0 0 0.8061 66.5869 420.1034)" style="overflow:visible;opacity:0.55;"/>
	
		<use xlink:href="#New_Symbol_5"  width="1.8" height="1.8" x="-0.9" y="-0.9" transform="matrix(0.8455 0 0 0.8061 111.8868 430.8545)" style="overflow:visible;opacity:0.55;"/>
	
		<use xlink:href="#New_Symbol_5"  width="1.8" height="1.8" x="-0.9" y="-0.9" transform="matrix(0.8455 0 0 0.8061 139.2778 448.5342)" style="overflow:visible;opacity:0.55;"/>
	
		<use xlink:href="#New_Symbol_5"  width="1.8" height="1.8" x="-0.9" y="-0.9" transform="matrix(0.8455 0 0 0.8061 147.2587 457.9817)" style="overflow:visible;opacity:0.55;"/>
	
		<use xlink:href="#New_Symbol_5"  width="1.8" height="1.8" x="-0.9" y="-0.9" transform="matrix(0.8455 0 0 0.8061 130.8954 477.99)" style="overflow:visible;opacity:0.55;"/>
	
		<use xlink:href="#New_Symbol_5"  width="1.8" height="1.8" x="-0.9" y="-0.9" transform="matrix(0.8455 0 0 0.8061 89.2925 496.9706)" style="overflow:visible;opacity:0.55;"/>
	
		<use xlink:href="#New_Symbol_5"  width="1.8" height="1.8" x="-0.9" y="-0.9" transform="matrix(0.8455 0 0 0.8061 67.8581 494.8097)" style="overflow:visible;opacity:0.55;"/>
	
		<use xlink:href="#New_Symbol_5"  width="1.8" height="1.8" x="-0.9" y="-0.9" transform="matrix(0.8455 0 0 0.8061 69.27 500.9294)" style="overflow:visible;opacity:0.55;"/>
	
		<use xlink:href="#New_Symbol_5"  width="1.8" height="1.8" x="-0.9" y="-0.9" transform="matrix(0.8455 0 0 0.8061 97.1209 488.3933)" style="overflow:visible;opacity:0.55;"/>
	
		<use xlink:href="#New_Symbol_5"  width="1.8" height="1.8" x="-0.9" y="-0.9" transform="matrix(0.8455 0 0 0.8061 153.2649 484.9086)" style="overflow:visible;opacity:0.55;"/>
	
		<use xlink:href="#New_Symbol_5"  width="1.8" height="1.8" x="-0.9" y="-0.9" transform="matrix(0.8455 0 0 0.8061 179.1581 489.849)" style="overflow:visible;opacity:0.55;"/>
	
		<use xlink:href="#New_Symbol_5"  width="1.8" height="1.8" x="-0.9" y="-0.9" transform="matrix(0.8455 0 0 0.8061 67.4441 364.5362)" style="overflow:visible;opacity:0.55;"/>
	
		<use xlink:href="#New_Symbol_5"  width="1.8" height="1.8" x="-0.9" y="-0.9" transform="matrix(0.8455 0 0 0.8061 62.4859 345.9101)" style="overflow:visible;opacity:0.55;"/>
	
		<use xlink:href="#New_Symbol_5"  width="1.8" height="1.8" x="-0.9" y="-0.9" transform="matrix(0.8455 0 0 0.8061 69.2203 328.1487)" style="overflow:visible;opacity:0.55;"/>
	
		<use xlink:href="#New_Symbol_5"  width="1.8" height="1.8" x="-0.9" y="-0.9" transform="matrix(0.8455 0 0 0.8061 55.9731 306.1402)" style="overflow:visible;opacity:0.55;"/>
	
		<use xlink:href="#New_Symbol_5"  width="1.8" height="1.8" x="-0.9" y="-0.9" transform="matrix(0.8455 0 0 0.8061 43.5774 285.8956)" style="overflow:visible;opacity:0.55;"/>
	
		<use xlink:href="#New_Symbol_5"  width="1.8" height="1.8" x="-0.9" y="-0.9" transform="matrix(0.8455 0 0 0.8061 39.7397 273.5772)" style="overflow:visible;opacity:0.55;"/>
	
		<use xlink:href="#New_Symbol_5"  width="1.8" height="1.8" x="-0.9" y="-0.9" transform="matrix(0.8455 0 0 0.8061 93.3346 304.391)" style="overflow:visible;opacity:0.55;"/>
	
		<use xlink:href="#New_Symbol_5"  width="1.8" height="1.8" x="-0.9" y="-0.9" transform="matrix(0.8455 0 0 0.8061 98.7317 310.6753)" style="overflow:visible;opacity:0.55;"/>
	
		<use xlink:href="#New_Symbol_5"  width="1.8" height="1.8" x="-0.9" y="-0.9" transform="matrix(0.8455 0 0 0.8061 123.1076 310.7245)" style="overflow:visible;opacity:0.55;"/>
	
		<use xlink:href="#New_Symbol_5"  width="1.8" height="1.8" x="-0.9" y="-0.9" transform="matrix(0.8455 0 0 0.8061 126.542 318.5866)" style="overflow:visible;opacity:0.55;"/>
	
		<use xlink:href="#New_Symbol_5"  width="1.8" height="1.8" x="-0.9" y="-0.9" transform="matrix(0.8455 0 0 0.8061 112.3837 336.6892)" style="overflow:visible;opacity:0.55;"/>
	
		<use xlink:href="#New_Symbol_5"  width="1.8" height="1.8" x="-0.9" y="-0.9" transform="matrix(0.8455 0 0 0.8061 125.4751 333.1906)" style="overflow:visible;opacity:0.55;"/>
	
		<use xlink:href="#New_Symbol_5"  width="1.8" height="1.8" x="-0.9" y="-0.9" transform="matrix(0.8455 0 0 0.8061 143.8647 326.6942)" style="overflow:visible;opacity:0.55;"/>
	
		<use xlink:href="#New_Symbol_5"  width="1.8" height="1.8" x="-0.9" y="-0.9" transform="matrix(0.8455 0 0 0.8061 150.7509 316.8408)" style="overflow:visible;opacity:0.55;"/>
	
		<use xlink:href="#New_Symbol_5"  width="1.8" height="1.8" x="-0.9" y="-0.9" transform="matrix(0.8455 0 0 0.8061 126.9226 303.5457)" style="overflow:visible;opacity:0.55;"/>
	
		<use xlink:href="#New_Symbol_5"  width="1.8" height="1.8" x="-0.9" y="-0.9" transform="matrix(0.8455 0 0 0.8061 58.4968 280.9616)" style="overflow:visible;opacity:0.55;"/>
	
		<use xlink:href="#New_Symbol_5"  width="1.8" height="1.8" x="-0.9" y="-0.9" transform="matrix(0.8455 0 0 0.8061 52.4175 254.8563)" style="overflow:visible;opacity:0.55;"/>
	
		<use xlink:href="#New_Symbol_5"  width="1.8" height="1.8" x="-0.9" y="-0.9" transform="matrix(0.8455 0 0 0.8061 79.227 257.1347)" style="overflow:visible;opacity:0.55;"/>
	
		<use xlink:href="#New_Symbol_5"  width="1.8" height="1.8" x="-0.9" y="-0.9" transform="matrix(0.8455 0 0 0.8061 107.4475 281.909)" style="overflow:visible;opacity:0.55;"/>
	
		<use xlink:href="#New_Symbol_5"  width="1.8" height="1.8" x="-0.9" y="-0.9" transform="matrix(0.8455 0 0 0.8061 108.8064 275.2141)" style="overflow:visible;opacity:0.55;"/>
	
		<use xlink:href="#New_Symbol_5"  width="1.8" height="1.8" x="-0.9" y="-0.9" transform="matrix(0.8455 0 0 0.8061 80.2544 246.5719)" style="overflow:visible;opacity:0.55;"/>
	
		<use xlink:href="#New_Symbol_5"  width="1.8" height="1.8" x="-0.9" y="-0.9" transform="matrix(0.8455 0 0 0.8061 65.9053 199.1687)" style="overflow:visible;opacity:0.55;"/>
	
		<use xlink:href="#New_Symbol_5"  width="1.8" height="1.8" x="-0.9" y="-0.9" transform="matrix(0.8455 0 0 0.8061 44.2341 178.8176)" style="overflow:visible;opacity:0.55;"/>
	
		<use xlink:href="#New_Symbol_5"  width="1.8" height="1.8" x="-0.9" y="-0.9" transform="matrix(0.8455 0 0 0.8061 78.2811 174.32)" style="overflow:visible;opacity:0.55;"/>
	
		<use xlink:href="#New_Symbol_5"  width="1.8" height="1.8" x="-0.9" y="-0.9" transform="matrix(0.8455 0 0 0.8061 120.5877 170.4566)" style="overflow:visible;opacity:0.55;"/>
	
		<use xlink:href="#New_Symbol_5"  width="1.8" height="1.8" x="-0.9" y="-0.9" transform="matrix(0.8455 0 0 0.8061 119.0147 222.8241)" style="overflow:visible;opacity:0.55;"/>
	
		<use xlink:href="#New_Symbol_5"  width="1.8" height="1.8" x="-0.9" y="-0.9" transform="matrix(0.8455 0 0 0.8061 137.0795 195.7134)" style="overflow:visible;opacity:0.55;"/>
	
		<use xlink:href="#New_Symbol_5"  width="1.8" height="1.8" x="-0.9" y="-0.9" transform="matrix(0.8455 0 0 0.8061 133.4288 177.7315)" style="overflow:visible;opacity:0.55;"/>
	
		<use xlink:href="#New_Symbol_5"  width="1.8" height="1.8" x="-0.9" y="-0.9" transform="matrix(0.8455 0 0 0.8061 137.9319 147.4487)" style="overflow:visible;opacity:0.55;"/>
	
		<use xlink:href="#New_Symbol_5"  width="1.8" height="1.8" x="-0.9" y="-0.9" transform="matrix(0.8455 0 0 0.8061 113.495 128.8592)" style="overflow:visible;opacity:0.55;"/>
	
		<use xlink:href="#New_Symbol_5"  width="1.8" height="1.8" x="-0.9" y="-0.9" transform="matrix(0.8455 0 0 0.8061 79.9036 115.0965)" style="overflow:visible;opacity:0.55;"/>
	
		<use xlink:href="#New_Symbol_5"  width="1.8" height="1.8" x="-0.9" y="-0.9" transform="matrix(0.8455 0 0 0.8061 102.7602 195.5552)" style="overflow:visible;opacity:0.55;"/>
	
		<use xlink:href="#New_Symbol_5"  width="1.8" height="1.8" x="-0.9" y="-0.9" transform="matrix(0.8455 0 0 0.8061 157.0994 410.4017)" style="overflow:visible;opacity:0.55;"/>
	
		<use xlink:href="#New_Symbol_5"  width="1.8" height="1.8" x="-0.9" y="-0.9" transform="matrix(0.8455 0 0 0.8061 160.9165 397.9555)" style="overflow:visible;opacity:0.55;"/>
	
		<use xlink:href="#New_Symbol_5"  width="1.8" height="1.8" x="-0.9" y="-0.9" transform="matrix(0.8455 0 0 0.8061 162.1462 391.975)" style="overflow:visible;opacity:0.55;"/>
	
		<use xlink:href="#New_Symbol_5"  width="1.8" height="1.8" x="-0.9" y="-0.9" transform="matrix(0.8455 0 0 0.8061 99.4029 402.6445)" style="overflow:visible;opacity:0.55;"/>
	
		<use xlink:href="#New_Symbol_5"  width="1.8" height="1.8" x="-0.9" y="-0.9" transform="matrix(0.8455 0 0 0.8061 216.6638 492.9992)" style="overflow:visible;opacity:0.55;"/>
	
		<use xlink:href="#New_Symbol_5"  width="1.8" height="1.8" x="-0.9" y="-0.9" transform="matrix(0.8455 0 0 0.8061 239.0528 494.6471)" style="overflow:visible;opacity:0.55;"/>
	
		<use xlink:href="#New_Symbol_5"  width="1.8" height="1.8" x="-0.9" y="-0.9" transform="matrix(0.8455 0 0 0.8061 318.5123 501.4021)" style="overflow:visible;opacity:0.55;"/>
	
		<use xlink:href="#New_Symbol_5"  width="1.8" height="1.8" x="-0.9" y="-0.9" transform="matrix(0.8455 0 0 0.8061 530.1066 490.3115)" style="overflow:visible;opacity:0.55;"/>
	
		<use xlink:href="#New_Symbol_5"  width="1.8" height="1.8" x="-0.9" y="-0.9" transform="matrix(0.8455 0 0 0.8061 588.4453 489.8752)" style="overflow:visible;opacity:0.55;"/>
	
		<use xlink:href="#New_Symbol_5"  width="1.8" height="1.8" x="-0.9" y="-0.9" transform="matrix(0.8455 0 0 0.8061 627.9968 492.9348)" style="overflow:visible;opacity:0.55;"/>
	
		<use xlink:href="#New_Symbol_5"  width="1.8" height="1.8" x="-0.9" y="-0.9" transform="matrix(0.8455 0 0 0.8061 607.7014 476.4568)" style="overflow:visible;opacity:0.55;"/>
	
		<use xlink:href="#New_Symbol_5"  width="1.8" height="1.8" x="-0.9" y="-0.9" transform="matrix(0.8455 0 0 0.8061 605.4543 456.3108)" style="overflow:visible;opacity:0.55;"/>
	
		<use xlink:href="#New_Symbol_5"  width="1.8" height="1.8" x="-0.9" y="-0.9" transform="matrix(0.8455 0 0 0.8061 609.0208 448.5306)" style="overflow:visible;opacity:0.55;"/>
	
		<use xlink:href="#New_Symbol_5"  width="1.8" height="1.8" x="-0.9" y="-0.9" transform="matrix(0.8455 0 0 0.8061 638.7614 416.2619)" style="overflow:visible;opacity:0.55;"/>
	
		<use xlink:href="#New_Symbol_5"  width="1.8" height="1.8" x="-0.9" y="-0.9" transform="matrix(0.8455 0 0 0.8061 639.8668 405.5278)" style="overflow:visible;opacity:0.55;"/>
	
		<use xlink:href="#New_Symbol_5"  width="1.8" height="1.8" x="-0.9" y="-0.9" transform="matrix(0.8455 0 0 0.8061 589.2597 429.5464)" style="overflow:visible;opacity:0.55;"/>
	
		<use xlink:href="#New_Symbol_5"  width="1.8" height="1.8" x="-0.9" y="-0.9" transform="matrix(0.8455 0 0 0.8061 562.8904 445.9168)" style="overflow:visible;opacity:0.55;"/>
	
		<use xlink:href="#New_Symbol_5"  width="1.8" height="1.8" x="-0.9" y="-0.9" transform="matrix(0.8455 0 0 0.8061 575.4472 451.1473)" style="overflow:visible;opacity:0.55;"/>
	
		<use xlink:href="#New_Symbol_5"  width="1.8" height="1.8" x="-0.9" y="-0.9" transform="matrix(0.8455 0 0 0.8061 639.7023 465.2517)" style="overflow:visible;opacity:0.55;"/>
	
		<use xlink:href="#New_Symbol_5"  width="1.8" height="1.8" x="-0.9" y="-0.9" transform="matrix(0.8455 0 0 0.8061 650.9484 468.5112)" style="overflow:visible;opacity:0.55;"/>
	
		<use xlink:href="#New_Symbol_5"  width="1.8" height="1.8" x="-0.9" y="-0.9" transform="matrix(0.8455 0 0 0.8061 650.6837 473.5915)" style="overflow:visible;opacity:0.55;"/>
	
		<use xlink:href="#New_Symbol_5"  width="1.8" height="1.8" x="-0.9" y="-0.9" transform="matrix(0.8455 0 0 0.8061 656.7515 423.6432)" style="overflow:visible;opacity:0.55;"/>
	
		<use xlink:href="#New_Symbol_5"  width="1.8" height="1.8" x="-0.9" y="-0.9" transform="matrix(0.8455 0 0 0.8061 663.9799 380.6195)" style="overflow:visible;opacity:0.55;"/>
	
		<use xlink:href="#New_Symbol_5"  width="1.8" height="1.8" x="-0.9" y="-0.9" transform="matrix(0.8455 0 0 0.8061 658.2011 373.939)" style="overflow:visible;opacity:0.55;"/>
	
		<use xlink:href="#New_Symbol_5"  width="1.8" height="1.8" x="-0.9" y="-0.9" transform="matrix(0.8455 0 0 0.8061 639.7321 399.352)" style="overflow:visible;opacity:0.55;"/>
	
		<use xlink:href="#New_Symbol_5"  width="1.8" height="1.8" x="-0.9" y="-0.9" transform="matrix(0.8455 0 0 0.8061 644.5313 367.0675)" style="overflow:visible;opacity:0.55;"/>
	
		<use xlink:href="#New_Symbol_5"  width="1.8" height="1.8" x="-0.9" y="-0.9" transform="matrix(0.8455 0 0 0.8061 668.8197 325.9391)" style="overflow:visible;opacity:0.55;"/>
	
		<use xlink:href="#New_Symbol_5"  width="1.8" height="1.8" x="-0.9" y="-0.9" transform="matrix(0.8455 0 0 0.8061 423.8038 493.0858)" style="overflow:visible;opacity:0.55;"/>
	
		<use xlink:href="#New_Symbol_5"  width="1.8" height="1.8" x="-0.9" y="-0.9" transform="matrix(0.8455 0 0 0.8061 485.3178 489.32)" style="overflow:visible;opacity:0.55;"/>
	
		<use xlink:href="#New_Symbol_5"  width="1.8" height="1.8" x="-0.9" y="-0.9" transform="matrix(0.8455 0 0 0.8061 439.9238 477.5023)" style="overflow:visible;opacity:0.55;"/>
	
		<use xlink:href="#New_Symbol_5"  width="1.8" height="1.8" x="-0.9" y="-0.9" transform="matrix(0.8455 0 0 0.8061 501.3412 472.6853)" style="overflow:visible;opacity:0.55;"/>
	
		<use xlink:href="#New_Symbol_5"  width="1.8" height="1.8" x="-0.9" y="-0.9" transform="matrix(0.8455 0 0 0.8061 413.9792 451.6031)" style="overflow:visible;opacity:0.55;"/>
	
		<use xlink:href="#New_Symbol_5"  width="1.8" height="1.8" x="-0.9" y="-0.9" transform="matrix(0.8455 0 0 0.8061 474.4875 441.9503)" style="overflow:visible;opacity:0.55;"/>
	
		<use xlink:href="#New_Symbol_5"  width="1.8" height="1.8" x="-0.9" y="-0.9" transform="matrix(0.8455 0 0 0.8061 177.0111 306.4561)" style="overflow:visible;opacity:0.55;"/>
	
		<use xlink:href="#New_Symbol_5"  width="1.8" height="1.8" x="-0.9" y="-0.9" transform="matrix(0.8455 0 0 0.8061 597.3027 412.0847)" style="overflow:visible;opacity:0.55;"/>
	
		<use xlink:href="#New_Symbol_5"  width="1.8" height="1.8" x="-0.9" y="-0.9" transform="matrix(0.8455 0 0 0.8061 635.0155 378.0381)" style="overflow:visible;opacity:0.55;"/>
	
		<use xlink:href="#New_Symbol_5"  width="1.8" height="1.8" x="-0.9" y="-0.9" transform="matrix(0.8455 0 0 0.8061 638.3445 339.7711)" style="overflow:visible;opacity:0.55;"/>
	
		<use xlink:href="#New_Symbol_5"  width="1.8" height="1.8" x="-0.9" y="-0.9" transform="matrix(0.8455 0 0 0.8061 670.5877 301.1197)" style="overflow:visible;opacity:0.55;"/>
	
		<use xlink:href="#New_Symbol_5"  width="1.8" height="1.8" x="-0.9" y="-0.9" transform="matrix(0.8455 0 0 0.8061 88.8682 149.8404)" style="overflow:visible;opacity:0.55;"/>
	
		<use xlink:href="#New_Symbol_5"  width="1.8" height="1.8" x="-0.9" y="-0.9" transform="matrix(0.8455 0 0 0.8061 5.5133 97.9158)" style="overflow:visible;opacity:0.55;"/>
	
		<use xlink:href="#New_Symbol_5"  width="1.8" height="1.8" x="-0.9" y="-0.9" transform="matrix(0.8455 0 0 0.8061 60.3345 138.9126)" style="overflow:visible;opacity:0.55;"/>
	
		<use xlink:href="#New_Symbol_5"  width="1.8" height="1.8" x="-0.9" y="-0.9" transform="matrix(0.8455 0 0 0.8061 48.2063 107.736)" style="overflow:visible;opacity:0.55;"/>
	
		<use xlink:href="#New_Symbol_5"  width="1.8" height="1.8" x="-0.9" y="-0.9" transform="matrix(0.8455 0 0 0.8061 55.1705 125.1728)" style="overflow:visible;opacity:0.55;"/>
	
		<use xlink:href="#New_Symbol_5"  width="1.8" height="1.8" x="-0.9" y="-0.9" transform="matrix(0.8455 0 0 0.8061 76.9508 102.522)" style="overflow:visible;opacity:0.55;"/>
	<polygon class="st2" points="461.4,246 382.4,241.9 388.6,290.1 	"/>
	<polygon class="st2" points="523.1,299.6 494.3,192.5 417.7,252.6 	"/>
	<path class="st2" d="M571.8,410c-1.4,0-93-22.3-93-22.3l44.3-88.1l95,78.6L571.8,410z"/>
	<polygon class="st2" points="406.3,344.1 478.8,387.7 523.1,299.6 	"/>
	<polygon class="st2" points="417.7,252.6 523.1,299.6 406.3,344.1 	"/>
	<polygon class="st2" points="310,183 382.4,241.9 392.5,198.2 	"/>
	<polygon class="st2" points="341.7,271.1 310,183 392.5,198.2 	"/>
	<path class="st2" d="M440,118.6c-2.4,0-130.4-49.8-130.1-48.4s0,112.8,0,112.8L440,118.6z"/>
	<polygon class="st2" points="574.7,241.2 523.1,299.6 494.3,192.5 	"/>
	<polygon class="st2" points="618,378.2 523.1,299.6 601.6,265.9 	"/>
	<polygon class="st2" points="494.3,192.5 597.1,111.9 601.6,265.9 	"/>
	<polygon class="st2" points="392.5,198.2 494.3,192.5 417.7,252.6 	"/>
	<polygon class="st2" points="566.2,136.1 440,118.6 494.3,192.5 	"/>
	<polygon class="st2" points="406.3,344.1 388.6,290.1 470.4,280.2 	"/>
	<polygon class="st2" points="478.8,387.7 490.7,332.3 406.3,344.1 	"/>
	<polygon class="st2" points="470.4,280.2 490.7,332.3 406.3,344.1 	"/>
	<polygon class="st2" points="571.8,410 490.7,332.3 523.1,299.6 	"/>
	<polygon class="st2" points="392.5,198.2 460.9,246 388.6,290.1 	"/>
	<polygon class="st2" points="355.7,126.6 392.5,198.2 310,183 	"/>
	<polygon class="st2" points="460.9,246 494.3,192.5 392.5,198.2 	"/>
	<polygon class="st2" points="494.3,192.5 456,52.6 566.2,136.1 	"/>
	<path class="st2" d="M667.7,238.9c0,0-24.4-116.1-25.8-116.1s-44.7-10.9-44.7-10.9L667.7,238.9z"/>
	<polygon class="st2" points="460.9,246 601.6,265.9 470.4,280.2 	"/>
	<polygon class="st2" points="667.7,238.9 601.6,265.9 574.7,241.2 	"/>
	<polygon class="st2" points="618,378.2 667.7,238.9 601.6,265.9 	"/>
	<polyline class="st3" points="257.6,429.4 322,460.2 356.3,385.3 355.6,344.1 406.3,344.1 	"/>
	<polygon class="st4" points="456,465 429.5,383.4 517.8,451.7 	"/>
	<polygon class="st5" points="360,460.2 405.7,479.6 375,410 	"/>
	<polygon class="st5" points="151.7,364 177.7,352 134.1,338.8 	"/>
	<polygon class="st5" points="262.6,381.5 307.3,414.7 341.7,381.5 	"/>
	<polygon class="st5" points="204.7,455.5 237.2,479.6 262.4,455.5 	"/>
	<polygon class="st5" points="175.7,395 170.3,429.2 205.8,440.4 	"/>
	<polygon class="st2" points="255.6,312.1 302.4,346 339.1,319 	"/>
	<polygon class="st2" points="293.8,227.1 284.9,270.5 316.6,271.1 	"/>
	<polygon class="st5" points="215.9,337.5 211.4,319 229.8,328.2 	"/>
	<polygon class="st5" points="162.9,195.2 143.2,192 159.3,179.4 	"/>
	<polygon class="st5" points="116.5,381.5 96.7,378.4 112.8,365.8 	"/>
	<polygon class="st5" points="191.5,167.4 213.4,224.2 244.8,185.6 	"/>
	<polygon class="st5" points="167.7,222.5 84.4,236.9 132.5,282.7 	"/>
	<polyline class="st6" points="310,183 271.5,229.9 266.1,176.6 229.8,277.3 198,298.3 	"/>
	<polygon class="st2" points="494.3,192.5 667.7,238.9 566.2,136.1 	"/>
	<polygon class="st2" points="641.8,122.8 604.5,187.7 597.1,111.9 	"/>
	<polygon class="st2" points="597.1,111.9 542.1,65.6 566.2,136.1 	"/>
	<polygon class="st2" points="604.5,187.7 526.3,142.1 597.1,111.9 	"/>
	<polygon class="st2" points="667.7,238.9 604.5,187.7 641.8,122.8 	"/>
	<polygon class="st2" points="429.5,383.4 478.8,387.7 473.7,406.6 	"/>
	<polygon class="st2" points="392.5,198.2 494.3,192.5 456,52.6 	"/>
	<polygon class="st2" points="341.5,271 382.4,241.9 388.6,290.1 	"/>
	<polygon class="st2" points="341.5,271 417.7,252.6 388.6,290.1 	"/>
	<polygon class="st2" points="461.4,246 574.7,241.2 534.5,183 	"/>
	<polygon class="st2" points="526.3,142.1 534.5,183 494.3,192.5 	"/>
	<polygon class="st2" points="604.5,187.7 534.5,183 526.3,142.1 	"/>
	<polygon class="st2" points="574.7,241.2 604.5,187.7 534.5,183 	"/>
	<polygon class="st2" points="478.8,387.7 532.6,349.6 571.8,410 	"/>
	<polygon class="st2" points="618,378.2 532.6,349.6 601.6,265.9 	"/>
	<polygon class="st2" points="490.7,332.3 532.6,349.6 523.1,299.6 	"/>
	<polygon class="st2" points="392.5,198.2 355.7,126.6 440,118.6 	"/>
	<polygon class="st2" points="310,70.3 355.7,126.6 440,118.6 	"/>
	<polygon class="st2" points="526.3,142.1 440,118.6 494.3,192.5 	"/>
	<ellipse class="st8" cx="478.2" cy="388" rx="2.4" ry="2.3"/>
	<path class="st8" d="M407.5,344.1c0-0.7-0.7-1.4-1.4-1.4c-0.8,0-1.4,0.6-1.4,1.4c0,0.7,0.7,1.4,1.4,1.4
		C406.9,345.4,407.5,344.9,407.5,344.1z"/>
	<ellipse class="st8" cx="667" cy="238" rx="4.3" ry="4.1"/>
	<path class="st8" d="M344.1,271.2c0-1.6-1.3-2.7-2.9-2.7s-2.9,1.3-2.9,2.7c0,1.6,1.3,2.7,2.9,2.7S344.1,272.8,344.1,271.2z"/>
	<ellipse class="st8" cx="392.6" cy="198.4" rx="1.9" ry="1.8"/>
	<ellipse class="st8" cx="439.6" cy="118.9" rx="1.9" ry="1.8"/>
	<ellipse class="st8" cx="461" cy="246.2" rx="1.9" ry="1.8"/>
	<path class="st8" d="M576.4,241.5c0-1.1-0.9-1.8-1.9-1.8c-1.1,0-1.9,0.8-1.9,1.8c0,1.1,0.9,1.8,1.9,1.8
		C575.5,243.4,576.4,242.5,576.4,241.5z"/>
	<ellipse class="st8" cx="382" cy="242.1" rx="1.9" ry="1.8"/>
	<path class="st8" d="M390.1,290.3c0-1.1-0.9-1.8-1.9-1.8c-1.1,0-1.9,0.8-1.9,1.8c0,1.1,0.9,1.8,1.9,1.8
		C389.3,292.1,390.1,291.4,390.1,290.3z"/>
	<path class="st8" d="M273.6,229.1c0-1.1-0.9-1.8-1.9-1.8c-1.1,0-1.9,0.8-1.9,1.8c0,1.1,0.9,1.8,1.9,1.8
		C272.7,231,273.6,230.2,273.6,229.1z"/>
	<ellipse class="st8" cx="191.1" cy="167.2" rx="1.9" ry="1.8"/>
	<ellipse class="st8" cx="229.4" cy="276.7" rx="1.9" ry="1.8"/>
	<path class="st8" d="M268,176.7c0-1.1-0.9-1.8-1.9-1.8s-1.9,0.8-1.9,1.8c0,1.1,0.9,1.8,1.9,1.8S268,177.7,268,176.7z"/>
	<path class="st8" d="M357.8,344.1c0-1.1-0.9-1.8-1.9-1.8s-1.9,0.8-1.9,1.8c0,1.1,0.9,1.8,1.9,1.8
		C357,345.9,357.8,345.1,357.8,344.1z"/>
	<path class="st8" d="M286.4,269.8c0-1.1-0.9-1.8-1.9-1.8s-1.9,0.8-1.9,1.8c0,1.1,0.9,1.8,1.9,1.8S286.4,270.8,286.4,269.8z"/>
	<ellipse class="st8" cx="255.2" cy="312.4" rx="1.9" ry="1.8"/>
	<path class="st8" d="M357.8,385.6c0-1.1-0.9-1.8-1.9-1.8s-1.9,0.8-1.9,1.8c0,1.1,0.9,1.8,1.9,1.8
		C357,387.4,357.8,386.6,357.8,385.6z"/>
	<path class="st8" d="M519.3,452.1c0-1.1-0.9-1.8-1.9-1.8s-1.9,0.8-1.9,1.8c0,0.9,0.9,1.8,1.9,1.8
		C518.5,453.9,519.3,453.1,519.3,452.1z"/>
	<ellipse class="st8" cx="405.3" cy="479.9" rx="1.9" ry="1.8"/>
	<ellipse class="st8" cx="321.6" cy="460.5" rx="1.9" ry="1.8"/>
	<path class="st8" d="M311.6,70.4c0-1.1-0.9-1.8-1.9-1.8s-1.9,0.8-1.9,1.8c0,1.1,0.9,1.8,1.9,1.8S311.6,71.5,311.6,70.4z"/>
	<ellipse class="st8" cx="469.6" cy="280.4" rx="1.9" ry="1.8"/>
	<ellipse class="st8" cx="532.2" cy="349.9" rx="1.9" ry="1.8"/>
	<ellipse class="st8" cx="534.1" cy="183.2" rx="1.9" ry="1.8"/>
	<path class="st8" d="M357.3,126.9c0-1.1-0.9-1.8-1.9-1.8s-1.9,0.8-1.9,1.8c0,1.1,0.9,1.8,1.9,1.8
		C356.4,128.7,357.3,127.8,357.3,126.9z"/>
	<ellipse class="st8" cx="526.1" cy="142.4" rx="1.9" ry="1.8"/>
	<path class="st8" d="M459.5,52.9c0-1.1-0.9-1.8-1.9-1.8c-1.1,0-1.9,0.8-1.9,1.8c0,1.1,0.9,1.8,1.9,1.8
		C458.6,54.8,459.5,54,459.5,52.9z"/>
	<path class="st8" d="M606.1,188c0-1.1-0.9-1.8-1.9-1.8c-1.1,0-1.9,0.8-1.9,1.8c0,1.1,0.9,1.8,1.9,1.8S606.1,188.9,606.1,188z"/>
	<ellipse class="st8" cx="522.3" cy="299.3" rx="2.5" ry="2.4"/>
	<ellipse class="st8" cx="417.3" cy="252.9" rx="1.9" ry="1.8"/>
	<ellipse class="st8" cx="601.3" cy="266.2" rx="3.8" ry="3.6"/>
	<ellipse class="st8" cx="493.9" cy="192.7" rx="1.9" ry="1.8"/>
	<ellipse class="st8" cx="565.8" cy="135.2" rx="3.8" ry="3.6"/>
	<ellipse class="st8" cx="489.8" cy="332.2" rx="1.9" ry="1.8"/>
	<path class="st8" d="M312.9,183.1c0-1.6-1.3-2.7-2.9-2.7s-2.9,1.3-2.9,2.7c0,1.6,1.3,2.7,2.9,2.7S312.9,184.6,312.9,183.1z"/>
	<path class="st8" d="M619.9,378.7c0-1.3-1.1-2.3-2.4-2.3s-2.4,1.1-2.4,2.3c0,1.3,1.1,2.3,2.4,2.3S619.9,379.9,619.9,378.7z"/>
	<path class="st8" d="M573.8,410.2c0-1.3-1.1-2.3-2.4-2.3c-1.3,0-2.4,1.1-2.4,2.3s1.1,2.3,2.4,2.3
		C572.7,412.6,573.8,411.5,573.8,410.2z"/>
	
		<use xlink:href="#New_Symbol_5"  width="1.8" height="1.8" x="-0.9" y="-0.9" transform="matrix(0.8455 0 0 0.7876 120.2813 672.9334)" style="overflow:visible;"/>
	
		<use xlink:href="#New_Symbol_5"  width="1.8" height="1.8" x="-0.9" y="-0.9" transform="matrix(0.8455 0 0 0.7876 90.6124 721.4363)" style="overflow:visible;opacity:0.55;"/>
	
		<use xlink:href="#New_Symbol_5"  width="1.8" height="1.8" x="-0.9" y="-0.9" transform="matrix(0.8455 0 0 0.7876 104.4342 725.0822)" style="overflow:visible;opacity:0.55;"/>
	
		<use xlink:href="#New_Symbol_5"  width="1.8" height="1.8" x="-0.9" y="-0.9" transform="matrix(0.8455 0 0 0.7876 110.8086 743.7149)" style="overflow:visible;opacity:0.55;"/>
	
		<use xlink:href="#New_Symbol_5"  width="1.8" height="1.8" x="-0.9" y="-0.9" transform="matrix(0.8455 0 0 0.7876 69.0928 737.2838)" style="overflow:visible;opacity:0.55;"/>
	
		<use xlink:href="#New_Symbol_5"  width="1.8" height="1.8" x="-0.9" y="-0.9" transform="matrix(0.8455 0 0 0.7876 63.9589 737.2528)" style="overflow:visible;opacity:0.55;"/>
	
		<use xlink:href="#New_Symbol_5"  width="1.8" height="1.8" x="-0.9" y="-0.9" transform="matrix(0.8455 0 0 0.7876 42.5795 684.1798)" style="overflow:visible;opacity:0.55;"/>
	
		<use xlink:href="#New_Symbol_5"  width="1.8" height="1.8" x="-0.9" y="-0.9" transform="matrix(0.8455 0 0 0.7876 58.5925 702.9066)" style="overflow:visible;opacity:0.55;"/>
	
		<use xlink:href="#New_Symbol_5"  width="1.8" height="1.8" x="-0.9" y="-0.9" transform="matrix(0.8455 0 0 0.7876 61.8345 692.5653)" style="overflow:visible;opacity:0.55;"/>
	
		<use xlink:href="#New_Symbol_5"  width="1.8" height="1.8" x="-0.9" y="-0.9" transform="matrix(0.8455 0 0 0.7876 107.1347 703.0707)" style="overflow:visible;opacity:0.55;"/>
	
		<use xlink:href="#New_Symbol_5"  width="1.8" height="1.8" x="-0.9" y="-0.9" transform="matrix(0.8455 0 0 0.7876 134.5255 720.3464)" style="overflow:visible;opacity:0.55;"/>
	
		<use xlink:href="#New_Symbol_5"  width="1.8" height="1.8" x="-0.9" y="-0.9" transform="matrix(0.8455 0 0 0.7876 142.5063 729.5779)" style="overflow:visible;opacity:0.55;"/>
	
		<use xlink:href="#New_Symbol_5"  width="1.8" height="1.8" x="-0.9" y="-0.9" transform="matrix(0.8455 0 0 0.7876 126.1432 749.1289)" style="overflow:visible;opacity:0.55;"/>
	
		<use xlink:href="#New_Symbol_5"  width="1.8" height="1.8" x="-0.9" y="-0.9" transform="matrix(0.8455 0 0 0.7876 84.5402 767.6758)" style="overflow:visible;opacity:0.55;"/>
	
		<use xlink:href="#New_Symbol_5"  width="1.8" height="1.8" x="-0.9" y="-0.9" transform="matrix(0.8455 0 0 0.7876 63.1058 765.5642)" style="overflow:visible;opacity:0.55;"/>
	
		<use xlink:href="#New_Symbol_5"  width="1.8" height="1.8" x="-0.9" y="-0.9" transform="matrix(0.8455 0 0 0.7876 64.5178 771.544)" style="overflow:visible;opacity:0.55;"/>
	
		<use xlink:href="#New_Symbol_5"  width="1.8" height="1.8" x="-0.9" y="-0.9" transform="matrix(0.8455 0 0 0.7876 92.3687 759.2946)" style="overflow:visible;opacity:0.55;"/>
	
		<use xlink:href="#New_Symbol_5"  width="1.8" height="1.8" x="-0.9" y="-0.9" transform="matrix(0.8455 0 0 0.7876 148.5126 755.8894)" style="overflow:visible;opacity:0.55;"/>
	
		<use xlink:href="#New_Symbol_5"  width="1.8" height="1.8" x="-0.9" y="-0.9" transform="matrix(0.8455 0 0 0.7876 174.4058 760.7169)" style="overflow:visible;opacity:0.55;"/>
	
		<use xlink:href="#New_Symbol_5"  width="1.8" height="1.8" x="-0.9" y="-0.9" transform="matrix(0.8455 0 0 0.7876 62.6919 638.2681)" style="overflow:visible;opacity:0.55;"/>
	
		<use xlink:href="#New_Symbol_5"  width="1.8" height="1.8" x="-0.9" y="-0.9" transform="matrix(0.8455 0 0 0.7876 57.7336 620.0677)" style="overflow:visible;opacity:0.55;"/>
	
		<use xlink:href="#New_Symbol_5"  width="1.8" height="1.8" x="-0.9" y="-0.9" transform="matrix(0.8455 0 0 0.7876 64.4679 602.7122)" style="overflow:visible;opacity:0.55;"/>
	
		<use xlink:href="#New_Symbol_5"  width="1.8" height="1.8" x="-0.9" y="-0.9" transform="matrix(0.8455 0 0 0.7876 51.2209 581.2068)" style="overflow:visible;opacity:0.55;"/>
	
		<use xlink:href="#New_Symbol_5"  width="1.8" height="1.8" x="-0.9" y="-0.9" transform="matrix(0.8455 0 0 0.7876 38.825 561.4248)" style="overflow:visible;opacity:0.55;"/>
	
		<use xlink:href="#New_Symbol_5"  width="1.8" height="1.8" x="-0.9" y="-0.9" transform="matrix(0.8455 0 0 0.7876 34.9873 549.388)" style="overflow:visible;opacity:0.55;"/>
	
		<use xlink:href="#New_Symbol_5"  width="1.8" height="1.8" x="-0.9" y="-0.9" transform="matrix(0.8455 0 0 0.7876 88.5823 579.4975)" style="overflow:visible;opacity:0.55;"/>
	
		<use xlink:href="#New_Symbol_5"  width="1.8" height="1.8" x="-0.9" y="-0.9" transform="matrix(0.8455 0 0 0.7876 93.9795 585.6382)" style="overflow:visible;opacity:0.55;"/>
	
		<use xlink:href="#New_Symbol_5"  width="1.8" height="1.8" x="-0.9" y="-0.9" transform="matrix(0.8455 0 0 0.7876 118.3554 585.6863)" style="overflow:visible;opacity:0.55;"/>
	
		<use xlink:href="#New_Symbol_5"  width="1.8" height="1.8" x="-0.9" y="-0.9" transform="matrix(0.8455 0 0 0.7876 121.7898 593.3687)" style="overflow:visible;opacity:0.55;"/>
	
		<use xlink:href="#New_Symbol_5"  width="1.8" height="1.8" x="-0.9" y="-0.9" transform="matrix(0.8455 0 0 0.7876 107.6314 611.0576)" style="overflow:visible;opacity:0.55;"/>
	
		<use xlink:href="#New_Symbol_5"  width="1.8" height="1.8" x="-0.9" y="-0.9" transform="matrix(0.8455 0 0 0.7876 120.7228 607.6389)" style="overflow:visible;opacity:0.55;"/>
	
		<use xlink:href="#New_Symbol_5"  width="1.8" height="1.8" x="-0.9" y="-0.9" transform="matrix(0.8455 0 0 0.7876 139.1124 601.291)" style="overflow:visible;opacity:0.55;"/>
	
		<use xlink:href="#New_Symbol_5"  width="1.8" height="1.8" x="-0.9" y="-0.9" transform="matrix(0.8455 0 0 0.7876 145.9987 591.6628)" style="overflow:visible;opacity:0.55;"/>
	
		<use xlink:href="#New_Symbol_5"  width="1.8" height="1.8" x="-0.9" y="-0.9" transform="matrix(0.8455 0 0 0.7876 122.1704 578.6715)" style="overflow:visible;opacity:0.55;"/>
	
		<use xlink:href="#New_Symbol_5"  width="1.8" height="1.8" x="-0.9" y="-0.9" transform="matrix(0.8455 0 0 0.7876 53.7445 556.6036)" style="overflow:visible;opacity:0.55;"/>
	
		<use xlink:href="#New_Symbol_5"  width="1.8" height="1.8" x="-0.9" y="-0.9" transform="matrix(0.8455 0 0 0.7876 47.6653 531.0949)" style="overflow:visible;opacity:0.55;"/>
	
		<use xlink:href="#New_Symbol_5"  width="1.8" height="1.8" x="-0.9" y="-0.9" transform="matrix(0.8455 0 0 0.7876 74.4746 533.3214)" style="overflow:visible;opacity:0.55;"/>
	
		<use xlink:href="#New_Symbol_5"  width="1.8" height="1.8" x="-0.9" y="-0.9" transform="matrix(0.8455 0 0 0.7876 102.6954 557.5294)" style="overflow:visible;opacity:0.55;"/>
	
		<use xlink:href="#New_Symbol_5"  width="1.8" height="1.8" x="-0.9" y="-0.9" transform="matrix(0.8455 0 0 0.7876 104.0543 550.9874)" style="overflow:visible;opacity:0.55;"/>
	
		<use xlink:href="#New_Symbol_5"  width="1.8" height="1.8" x="-0.9" y="-0.9" transform="matrix(0.8455 0 0 0.7876 75.5023 522.9999)" style="overflow:visible;opacity:0.55;"/>
	
		<use xlink:href="#New_Symbol_5"  width="1.8" height="1.8" x="-0.9" y="-0.9" transform="matrix(0.8455 0 0 0.7876 61.153 476.6801)" style="overflow:visible;opacity:0.55;"/>
	
		<use xlink:href="#New_Symbol_5"  width="1.8" height="1.8" x="-0.9" y="-0.9" transform="matrix(0.8455 0 0 0.7876 39.4818 456.7939)" style="overflow:visible;opacity:0.55;"/>
	
		<use xlink:href="#New_Symbol_5"  width="1.8" height="1.8" x="-0.9" y="-0.9" transform="matrix(0.8455 0 0 0.7876 73.5288 452.3993)" style="overflow:visible;opacity:0.55;"/>
	
		<use xlink:href="#New_Symbol_5"  width="1.8" height="1.8" x="-0.9" y="-0.9" transform="matrix(0.8455 0 0 0.7876 115.8355 448.6241)" style="overflow:visible;opacity:0.55;"/>
	
		<use xlink:href="#New_Symbol_5"  width="1.8" height="1.8" x="-0.9" y="-0.9" transform="matrix(0.8455 0 0 0.7876 114.2626 499.7948)" style="overflow:visible;opacity:0.55;"/>
	
		<use xlink:href="#New_Symbol_5"  width="1.8" height="1.8" x="-0.9" y="-0.9" transform="matrix(0.8455 0 0 0.7876 132.3272 473.3038)" style="overflow:visible;opacity:0.55;"/>
	
		<use xlink:href="#New_Symbol_5"  width="1.8" height="1.8" x="-0.9" y="-0.9" transform="matrix(0.8455 0 0 0.7876 128.6767 455.7328)" style="overflow:visible;opacity:0.55;"/>
	
		<use xlink:href="#New_Symbol_5"  width="1.8" height="1.8" x="-0.9" y="-0.9" transform="matrix(0.8455 0 0 0.7876 133.1796 426.1421)" style="overflow:visible;opacity:0.55;"/>
	
		<use xlink:href="#New_Symbol_5"  width="1.8" height="1.8" x="-0.9" y="-0.9" transform="matrix(0.8455 0 0 0.7876 108.7427 407.9775)" style="overflow:visible;opacity:0.55;"/>
	
		<use xlink:href="#New_Symbol_5"  width="1.8" height="1.8" x="-0.9" y="-0.9" transform="matrix(0.8455 0 0 0.7876 75.1515 394.5293)" style="overflow:visible;opacity:0.55;"/>
	
		<use xlink:href="#New_Symbol_5"  width="1.8" height="1.8" x="-0.9" y="-0.9" transform="matrix(0.8455 0 0 0.7876 98.008 473.1492)" style="overflow:visible;opacity:0.55;"/>
	
		<use xlink:href="#New_Symbol_5"  width="1.8" height="1.8" x="-0.9" y="-0.9" transform="matrix(0.8455 0 0 0.7876 152.3471 683.0854)" style="overflow:visible;opacity:0.55;"/>
	
		<use xlink:href="#New_Symbol_5"  width="1.8" height="1.8" x="-0.9" y="-0.9" transform="matrix(0.8455 0 0 0.7876 156.1644 670.9237)" style="overflow:visible;opacity:0.55;"/>
	
		<use xlink:href="#New_Symbol_5"  width="1.8" height="1.8" x="-0.9" y="-0.9" transform="matrix(0.8455 0 0 0.7876 157.394 665.08)" style="overflow:visible;opacity:0.55;"/>
	
		<use xlink:href="#New_Symbol_5"  width="1.8" height="1.8" x="-0.9" y="-0.9" transform="matrix(0.8455 0 0 0.7876 94.6507 675.5056)" style="overflow:visible;opacity:0.55;"/>
	
		<use xlink:href="#New_Symbol_5"  width="1.8" height="1.8" x="-0.9" y="-0.9" transform="matrix(0.8455 0 0 0.7876 211.9116 763.7951)" style="overflow:visible;opacity:0.55;"/>
	
		<use xlink:href="#New_Symbol_5"  width="1.8" height="1.8" x="-0.9" y="-0.9" transform="matrix(0.8455 0 0 0.7876 234.3006 765.4055)" style="overflow:visible;opacity:0.55;"/>
	
		<use xlink:href="#New_Symbol_5"  width="1.8" height="1.8" x="-0.9" y="-0.9" transform="matrix(0.8455 0 0 0.7876 313.7599 772.006)" style="overflow:visible;opacity:0.55;"/>
	
		<use xlink:href="#New_Symbol_5"  width="1.8" height="1.8" x="-0.9" y="-0.9" transform="matrix(0.8455 0 0 0.7876 525.3543 761.1688)" style="overflow:visible;opacity:0.55;"/>
	
		<use xlink:href="#New_Symbol_5"  width="1.8" height="1.8" x="-0.9" y="-0.9" transform="matrix(0.8455 0 0 0.7876 583.6929 760.7426)" style="overflow:visible;opacity:0.55;"/>
	
		<use xlink:href="#New_Symbol_5"  width="1.8" height="1.8" x="-0.9" y="-0.9" transform="matrix(0.8455 0 0 0.7876 623.2445 763.7322)" style="overflow:visible;opacity:0.55;"/>
	
		<use xlink:href="#New_Symbol_5"  width="1.8" height="1.8" x="-0.9" y="-0.9" transform="matrix(0.8455 0 0 0.7876 602.949 747.6308)" style="overflow:visible;opacity:0.55;"/>
	
		<use xlink:href="#New_Symbol_5"  width="1.8" height="1.8" x="-0.9" y="-0.9" transform="matrix(0.8455 0 0 0.7876 600.7021 727.9453)" style="overflow:visible;opacity:0.55;"/>
	
		<use xlink:href="#New_Symbol_5"  width="1.8" height="1.8" x="-0.9" y="-0.9" transform="matrix(0.8455 0 0 0.7876 604.2684 720.343)" style="overflow:visible;opacity:0.55;"/>
	
		<use xlink:href="#New_Symbol_5"  width="1.8" height="1.8" x="-0.9" y="-0.9" transform="matrix(0.8455 0 0 0.7876 634.009 688.8116)" style="overflow:visible;opacity:0.55;"/>
	
		<use xlink:href="#New_Symbol_5"  width="1.8" height="1.8" x="-0.9" y="-0.9" transform="matrix(0.8455 0 0 0.7876 635.1144 678.3228)" style="overflow:visible;opacity:0.55;"/>
	
		<use xlink:href="#New_Symbol_5"  width="1.8" height="1.8" x="-0.9" y="-0.9" transform="matrix(0.8455 0 0 0.7876 584.5075 701.7926)" style="overflow:visible;opacity:0.55;"/>
	
		<use xlink:href="#New_Symbol_5"  width="1.8" height="1.8" x="-0.9" y="-0.9" transform="matrix(0.8455 0 0 0.7876 558.1381 717.7888)" style="overflow:visible;opacity:0.55;"/>
	
		<use xlink:href="#New_Symbol_5"  width="1.8" height="1.8" x="-0.9" y="-0.9" transform="matrix(0.8455 0 0 0.7876 570.695 722.8998)" style="overflow:visible;opacity:0.55;"/>
	
		<use xlink:href="#New_Symbol_5"  width="1.8" height="1.8" x="-0.9" y="-0.9" transform="matrix(0.8455 0 0 0.7876 634.95 736.6817)" style="overflow:visible;opacity:0.55;"/>
	
		<use xlink:href="#New_Symbol_5"  width="1.8" height="1.8" x="-0.9" y="-0.9" transform="matrix(0.8455 0 0 0.7876 646.1962 739.8667)" style="overflow:visible;opacity:0.55;"/>
	
		<use xlink:href="#New_Symbol_5"  width="1.8" height="1.8" x="-0.9" y="-0.9" transform="matrix(0.8455 0 0 0.7876 645.9313 744.8311)" style="overflow:visible;opacity:0.55;"/>
	
		<use xlink:href="#New_Symbol_5"  width="1.8" height="1.8" x="-0.9" y="-0.9" transform="matrix(0.8455 0 0 0.7876 651.9992 696.0244)" style="overflow:visible;opacity:0.55;"/>
	
		<use xlink:href="#New_Symbol_5"  width="1.8" height="1.8" x="-0.9" y="-0.9" transform="matrix(0.8455 0 0 0.7876 659.2276 653.9839)" style="overflow:visible;opacity:0.55;"/>
	
		<use xlink:href="#New_Symbol_5"  width="1.8" height="1.8" x="-0.9" y="-0.9" transform="matrix(0.8455 0 0 0.7876 653.4489 647.4561)" style="overflow:visible;opacity:0.55;"/>
	
		<use xlink:href="#New_Symbol_5"  width="1.8" height="1.8" x="-0.9" y="-0.9" transform="matrix(0.8455 0 0 0.7876 634.9799 672.2882)" style="overflow:visible;opacity:0.55;"/>
	
		<use xlink:href="#New_Symbol_5"  width="1.8" height="1.8" x="-0.9" y="-0.9" transform="matrix(0.8455 0 0 0.7876 639.7791 640.7416)" style="overflow:visible;opacity:0.55;"/>
	
		<use xlink:href="#New_Symbol_5"  width="1.8" height="1.8" x="-0.9" y="-0.9" transform="matrix(0.8455 0 0 0.7876 664.0675 600.5531)" style="overflow:visible;opacity:0.55;"/>
	
		<use xlink:href="#New_Symbol_5"  width="1.8" height="1.8" x="-0.9" y="-0.9" transform="matrix(0.8455 0 0 0.7876 419.0516 763.8797)" style="overflow:visible;opacity:0.55;"/>
	
		<use xlink:href="#New_Symbol_5"  width="1.8" height="1.8" x="-0.9" y="-0.9" transform="matrix(0.8455 0 0 0.7876 480.5656 760.2)" style="overflow:visible;opacity:0.55;"/>
	
		<use xlink:href="#New_Symbol_5"  width="1.8" height="1.8" x="-0.9" y="-0.9" transform="matrix(0.8455 0 0 0.7876 435.1716 748.6524)" style="overflow:visible;opacity:0.55;"/>
	
		<use xlink:href="#New_Symbol_5"  width="1.8" height="1.8" x="-0.9" y="-0.9" transform="matrix(0.8455 0 0 0.7876 496.5888 743.9456)" style="overflow:visible;opacity:0.55;"/>
	
		<use xlink:href="#New_Symbol_5"  width="1.8" height="1.8" x="-0.9" y="-0.9" transform="matrix(0.8455 0 0 0.7876 409.2271 723.3452)" style="overflow:visible;opacity:0.55;"/>
	
		<use xlink:href="#New_Symbol_5"  width="1.8" height="1.8" x="-0.9" y="-0.9" transform="matrix(0.8455 0 0 0.7876 469.7353 713.913)" style="overflow:visible;opacity:0.55;"/>
	
		<use xlink:href="#New_Symbol_5"  width="1.8" height="1.8" x="-0.9" y="-0.9" transform="matrix(0.8455 0 0 0.7876 172.2589 581.5154)" style="overflow:visible;opacity:0.55;"/>
	
		<use xlink:href="#New_Symbol_5"  width="1.8" height="1.8" x="-0.9" y="-0.9" transform="matrix(0.8455 0 0 0.7876 592.5504 684.7299)" style="overflow:visible;opacity:0.55;"/>
	
		<use xlink:href="#New_Symbol_5"  width="1.8" height="1.8" x="-0.9" y="-0.9" transform="matrix(0.8455 0 0 0.7876 630.2632 651.4615)" style="overflow:visible;opacity:0.55;"/>
	
		<use xlink:href="#New_Symbol_5"  width="1.8" height="1.8" x="-0.9" y="-0.9" transform="matrix(0.8455 0 0 0.7876 633.5923 614.0692)" style="overflow:visible;opacity:0.55;"/>
	
		<use xlink:href="#New_Symbol_5"  width="1.8" height="1.8" x="-0.9" y="-0.9" transform="matrix(0.8455 0 0 0.7876 665.8355 576.301)" style="overflow:visible;opacity:0.55;"/>
	
		<use xlink:href="#New_Symbol_5"  width="1.8" height="1.8" x="-0.9" y="-0.9" transform="matrix(0.8455 0 0 0.7876 84.116 428.4792)" style="overflow:visible;opacity:0.55;"/>
	
		<use xlink:href="#New_Symbol_5"  width="1.8" height="1.8" x="-0.9" y="-0.9" transform="matrix(0.8455 0 0 0.7876 0.7609 377.7412)" style="overflow:visible;opacity:0.55;"/>
	
		<use xlink:href="#New_Symbol_5"  width="1.8" height="1.8" x="-0.9" y="-0.9" transform="matrix(0.8455 0 0 0.7876 55.5823 417.8011)" style="overflow:visible;opacity:0.55;"/>
	
		<use xlink:href="#New_Symbol_5"  width="1.8" height="1.8" x="-0.9" y="-0.9" transform="matrix(0.8455 0 0 0.7876 43.4542 387.337)" style="overflow:visible;opacity:0.55;"/>
	
		<use xlink:href="#New_Symbol_5"  width="1.8" height="1.8" x="-0.9" y="-0.9" transform="matrix(0.8455 0 0 0.7876 50.4181 404.3753)" style="overflow:visible;opacity:0.55;"/>
	
		<use xlink:href="#New_Symbol_5"  width="1.8" height="1.8" x="-0.9" y="-0.9" transform="matrix(0.8455 0 0 0.7876 72.1986 382.2422)" style="overflow:visible;opacity:0.55;"/>
	<polygon class="st2" points="456.6,522.4 377.6,518.4 383.8,565.5 	"/>
	<polygon class="st2" points="518.3,574.8 489.5,470.1 412.9,528.9 	"/>
	<path class="st2" d="M567,682.7c-1.4,0-93-21.8-93-21.8l44.3-86.1l95,76.8L567,682.7z"/>
	<polygon class="st2" points="401.5,618.3 474,660.9 518.3,574.8 	"/>
	<polygon class="st2" points="412.9,528.9 518.3,574.8 401.5,618.3 	"/>
	<polygon class="st2" points="305.2,460.9 377.6,518.4 387.8,475.7 	"/>
	<polygon class="st2" points="337,547 305.2,460.9 387.8,475.7 	"/>
	<path class="st2" d="M435.3,397.9c-2.4,0-130.4-48.7-130.1-47.3c0.3,1.3,0,110.2,0,110.2L435.3,397.9z"/>
	<polygon class="st2" points="570,517.8 518.3,574.8 489.5,470.1 	"/>
	<polygon class="st2" points="613.3,651.6 518.3,574.8 596.9,541.9 	"/>
	<polygon class="st2" points="489.5,470.1 592.4,391.5 596.9,541.9 	"/>
	<polygon class="st2" points="387.8,475.7 489.5,470.1 412.9,528.9 	"/>
	<polygon class="st2" points="561.5,415.1 435.3,397.9 489.5,470.1 	"/>
	<polygon class="st2" points="401.5,618.3 383.8,565.5 465.6,555.8 	"/>
	<polygon class="st2" points="474,660.9 486,606.8 401.5,618.3 	"/>
	<polygon class="st2" points="465.6,555.8 486,606.8 401.5,618.3 	"/>
	<polygon class="st2" points="567,682.7 486,606.8 518.3,574.8 	"/>
	<polygon class="st2" points="387.8,475.7 456.2,522.4 383.8,565.5 	"/>
	<polygon class="st2" points="350.9,405.8 387.8,475.7 305.2,460.9 	"/>
	<polygon class="st2" points="456.2,522.4 489.5,470.1 387.8,475.7 	"/>
	<polygon class="st2" points="489.5,470.1 451.2,333.5 561.5,415.1 	"/>
	<path class="st2" d="M663,515.5c0,0-24.4-113.4-25.8-113.4c-1.4,0-44.7-10.6-44.7-10.6L663,515.5z"/>
	<polygon class="st2" points="456.2,522.4 596.9,541.9 465.6,555.8 	"/>
	<polygon class="st2" points="663,515.5 596.9,541.9 570,517.8 	"/>
	<polygon class="st2" points="613.3,651.6 663,515.5 596.9,541.9 	"/>
	<polyline class="st3" points="252.8,701.6 317.3,731.8 351.6,658.5 350.8,618.3 401.5,618.3 	"/>
	<polygon class="st4" points="451.2,736.4 424.8,656.7 513.1,723.4 	"/>
	<polygon class="st5" points="355.2,731.8 401,750.7 370.3,682.7 	"/>
	<polygon class="st5" points="146.9,637.7 172.9,626.1 129.3,613.2 	"/>
	<polygon class="st5" points="257.8,654.8 302.5,687.3 337,654.8 	"/>
	<polygon class="st5" points="199.9,727.1 232.5,750.7 257.6,727.1 	"/>
	<polygon class="st5" points="170.9,668 165.5,701.4 201,712.4 	"/>
	<polygon class="st2" points="250.9,587.1 297.7,620.2 334.3,593.8 	"/>
	<polygon class="st2" points="289,504 280.2,546.3 311.8,547 	"/>
	<polygon class="st5" points="211.1,611.8 206.7,593.8 225.1,602.7 	"/>
	<polygon class="st5" points="158.2,472.8 138.5,469.7 154.5,457.3 	"/>
	<polygon class="st5" points="111.7,654.8 92,651.8 108,639.5 	"/>
	<polygon class="st5" points="186.8,445.6 208.7,501.2 240,463.4 	"/>
	<polygon class="st5" points="163,499.5 79.6,513.5 127.8,558.3 	"/>
	<polyline class="st6" points="305.2,460.9 266.8,506.7 261.4,454.7 225.1,553 193.3,573.6 	"/>
	<polygon class="st2" points="489.5,470.1 663,515.5 561.5,415.1 	"/>
	<polygon class="st2" points="637.1,402.1 599.8,465.5 592.4,391.5 	"/>
	<polygon class="st2" points="592.4,391.5 537.3,346.2 561.5,415.1 	"/>
	<polygon class="st2" points="599.8,465.5 521.5,420.9 592.4,391.5 	"/>
	<polygon class="st2" points="663,515.5 599.8,465.5 637.1,402.1 	"/>
	<polygon class="st2" points="424.8,656.7 474,660.9 468.9,679.4 	"/>
	<polygon class="st2" points="387.8,475.7 489.5,470.1 451.2,333.5 	"/>
	<polygon class="st2" points="336.8,546.9 377.6,518.4 383.8,565.5 	"/>
	<polygon class="st2" points="336.8,546.9 412.9,528.9 383.8,565.5 	"/>
	<polygon class="st2" points="456.6,522.4 570,517.8 529.7,460.9 	"/>
	<polygon class="st2" points="521.5,420.9 529.7,460.9 489.5,470.1 	"/>
	<polygon class="st2" points="599.8,465.5 529.7,460.9 521.5,420.9 	"/>
	<polygon class="st2" points="570,517.8 599.8,465.5 529.7,460.9 	"/>
	<polygon class="st2" points="474,660.9 527.8,623.7 567,682.7 	"/>
	<polygon class="st2" points="613.3,651.6 527.8,623.7 596.9,541.9 	"/>
	<polygon class="st2" points="486,606.8 527.8,623.7 518.3,574.8 	"/>
	<polygon class="st2" points="387.8,475.7 350.9,405.8 435.3,397.9 	"/>
	<polygon class="st2" points="305.2,350.7 350.9,405.8 435.3,397.9 	"/>
	<polygon class="st2" points="521.5,420.9 435.3,397.9 489.5,470.1 	"/>
	<ellipse class="st8" cx="473.8" cy="660.9" rx="2.4" ry="2.3"/>
	<path class="st2" d="M403.2,618c0-0.7-0.7-1.3-1.4-1.3s-1.4,0.6-1.4,1.3s0.7,1.3,1.4,1.3S403.2,618.8,403.2,618z"/>
	<ellipse class="st8" cx="662.7" cy="514.4" rx="4.3" ry="4"/>
	<path class="st8" d="M339.7,546.9c0-1.5-1.3-2.7-2.9-2.7c-1.5,0-2.9,1.2-2.9,2.7s1.3,2.7,2.9,2.7
		C338.4,549.5,339.7,548.4,339.7,546.9z"/>
	<ellipse class="st2" cx="388.2" cy="475.7" rx="1.9" ry="1.8"/>
	<ellipse class="st8" cx="435.3" cy="397.9" rx="1.9" ry="1.8"/>
	<ellipse class="st8" cx="456.6" cy="522.4" rx="1.9" ry="1.8"/>
	<path class="st8" d="M572,517.8c0-1-0.9-1.8-1.9-1.8c-1.1,0-1.9,0.8-1.9,1.8s0.9,1.8,1.9,1.8C571.1,519.6,572,518.8,572,517.8z"/>
	<ellipse class="st8" cx="377.6" cy="518.4" rx="1.9" ry="1.8"/>
	<path class="st8" d="M385.7,565.5c0-1-0.9-1.8-1.9-1.8c-1.1,0-1.9,0.8-1.9,1.8s0.9,1.8,1.9,1.8
		C384.9,567.3,385.7,566.6,385.7,565.5z"/>
	<path class="st8" d="M269.2,505.7c0-1-0.9-1.8-1.9-1.8c-1.1,0-1.9,0.8-1.9,1.8s0.9,1.8,1.9,1.8
		C268.3,507.6,269.2,506.7,269.2,505.7z"/>
	<ellipse class="st8" cx="186.8" cy="445.2" rx="1.9" ry="1.8"/>
	<ellipse class="st8" cx="225.1" cy="552.2" rx="1.9" ry="1.8"/>
	<path class="st8" d="M263.6,454.5c0-1-0.9-1.8-1.9-1.8s-1.9,0.8-1.9,1.8s0.9,1.8,1.9,1.8C262.7,456.2,263.6,455.5,263.6,454.5z"/>
	<path class="st8" d="M353.5,618c0-1-0.9-1.8-1.9-1.8s-1.9,0.8-1.9,1.8s0.9,1.8,1.9,1.8S353.5,619,353.5,618z"/>
	<path class="st8" d="M282.1,545.4c0-1-0.9-1.8-1.9-1.8s-1.9,0.8-1.9,1.8s0.9,1.8,1.9,1.8C281.2,547.2,282.1,546.4,282.1,545.4z"/>
	<ellipse class="st8" cx="250.9" cy="587.1" rx="1.9" ry="1.8"/>
	<path class="st8" d="M353.5,658.6c0-1-0.9-1.8-1.9-1.8s-1.9,0.8-1.9,1.8s0.9,1.8,1.9,1.8S353.5,659.6,353.5,658.6z"/>
	<path class="st8" d="M515,723.6c0-1-0.9-1.8-1.9-1.8s-1.9,0.8-1.9,1.8s0.9,1.8,1.9,1.8C514.1,725.4,515,724.5,515,723.6z"/>
	<ellipse class="st8" cx="401" cy="750.7" rx="1.9" ry="1.8"/>
	<ellipse class="st8" cx="317.3" cy="731.8" rx="1.9" ry="1.8"/>
	<path class="st8" d="M307.2,350.6c0-1-0.9-1.8-1.9-1.8s-1.9,0.8-1.9,1.8s0.9,1.8,1.9,1.8C306.3,352.4,307.2,351.6,307.2,350.6z"/>
	<ellipse class="st8" cx="465.3" cy="555.8" rx="1.9" ry="1.8"/>
	<ellipse class="st8" cx="527.8" cy="623.7" rx="1.9" ry="1.8"/>
	<ellipse class="st8" cx="529.7" cy="460.9" rx="1.9" ry="1.8"/>
	<path class="st8" d="M352.9,405.8c0-1-0.9-1.8-1.9-1.8s-1.9,0.8-1.9,1.8s0.9,1.8,1.9,1.8C352,407.5,352.9,406.7,352.9,405.8z"/>
	<ellipse class="st8" cx="521.7" cy="420.9" rx="1.9" ry="1.8"/>
	<path class="st8" d="M453,332.7c0-1-0.9-1.8-1.9-1.8c-1.1,0-1.9,0.8-1.9,1.8s0.9,1.8,1.9,1.8C452.1,334.6,453,333.7,453,332.7z"/>
	<path class="st8" d="M601.8,465.5c0-1-0.9-1.8-1.9-1.8c-1.1,0-1.9,0.8-1.9,1.8s0.9,1.8,1.9,1.8
		C600.9,467.2,601.8,466.4,601.8,465.5z"/>
	<ellipse class="st8" cx="518" cy="574.3" rx="2.5" ry="2.4"/>
	<ellipse class="st8" cx="412.9" cy="528.9" rx="1.9" ry="1.8"/>
	<ellipse class="st8" cx="596.9" cy="541.9" rx="3.8" ry="3.5"/>
	<ellipse class="st2" cx="489.5" cy="470.1" rx="1.9" ry="1.8"/>
	<ellipse class="st8" cx="561.5" cy="413.9" rx="3.8" ry="3.5"/>
	<ellipse class="st8" cx="485.4" cy="606.5" rx="1.9" ry="1.8"/>
	<path class="st8" d="M308.5,460.7c0-1.5-1.3-2.7-2.9-2.7s-2.9,1.2-2.9,2.7s1.3,2.7,2.9,2.7S308.5,462.2,308.5,460.7z"/>
	<path class="st8" d="M615.5,651.8c0-1.2-1.1-2.3-2.4-2.3s-2.4,1-2.4,2.3s1.1,2.3,2.4,2.3S615.5,653.1,615.5,651.8z"/>
	<path class="st8" d="M569.4,682.7c0-1.2-1.1-2.3-2.4-2.3s-2.4,1-2.4,2.3c0,1.2,1.1,2.3,2.4,2.3
		C568.3,684.9,569.4,683.9,569.4,682.7z"/>
</g>
</svg>
