<svg xmlns="http://www.w3.org/2000/svg" viewBox="0 0 220 45.837">
  <defs>
    <style>
      .cls-1 {
      fill: #fff;
      }

      .cls-2 {
      fill: #aeaeae;
      }
    </style>
  </defs>
  <g id="Group_27" data-name="Group 27" transform="translate(-814.5 -173)">
    <path id="Path_12" data-name="Path 12" class="cls-1"
          d="M64.5,39.9V5h5.686V19.521H77.1L86.806,5h6.473L81.645,21.97,94.154,39.9H87.681l-10.5-15.133h-7V39.9Z"
          transform="translate(750 168)"/>
    <path id="Path_13" data-name="Path 13" class="cls-1"
          d="M110.571,16.8c9.535,0,12.859,7.7,11.284,14.608h-18.02c.612,4.286,4.811,6.123,9.185,6.123a18.9,18.9,0,0,0,7.61-1.662v4.549a20.532,20.532,0,0,1-8.573,1.662c-7.348,0-13.559-4.2-13.559-12.6C98.412,20.736,104.973,16.8,110.571,16.8Zm.262,4.461c-3.586,0-6.823,2.187-7,6.211h13.3C117.307,25.285,115.995,21.261,110.834,21.261Z"
          transform="translate(745.742 166.522)"/>
    <path id="Path_14" data-name="Path 14" class="cls-1"
          d="M144.7,16.8c7.173,0,11.9,5.773,11.9,12.6s-4.724,12.6-11.9,12.6a11.211,11.211,0,0,1-8.66-3.761V52.314H130.7v-34.9h4.724v3.761A11.645,11.645,0,0,1,144.7,16.8Zm-.962,4.636a8.358,8.358,0,0,0-7.61,4.986v5.861a8.439,8.439,0,0,0,7.61,5.074c4.374,0,7.435-3.237,7.435-7.96S148.02,21.436,143.734,21.436Z"
          transform="translate(741.709 166.523)"/>
    <path id="Path_15" data-name="Path 15" class="cls-1" d="M171.636,5V39.9H166.3V5Z"
          transform="translate(737.25 168)"/>
    <path id="Path_16" data-name="Path 16" class="cls-1"
          d="M190.572,16.8c9.535,0,12.859,7.7,11.284,14.608h-18.02c.612,4.286,4.811,6.123,9.185,6.123a18.9,18.9,0,0,0,7.61-1.662v4.549a20.462,20.462,0,0,1-8.573,1.575c-7.348,0-13.559-4.2-13.559-12.6C178.5,20.736,185.061,16.8,190.572,16.8Zm.262,4.461c-3.586,0-6.823,2.187-7,6.211h13.3C197.395,25.285,196.083,21.261,190.834,21.261Z"
          transform="translate(735.722 166.522)"/>
    <path id="Path_17" data-name="Path 17" class="cls-1"
          d="M224.871,17.675v5.249l-8.135,3.761V41.468H211.4V17.5h4.724v3.936Z" transform="translate(731.601 166.434)"/>
    <path id="Path_18" data-name="Path 18" class="cls-2"
          d="M241.222,9.3v7.348h8.66V21.9h-8.66V32.131c0,3.149,1.4,4.2,4.549,4.2a12.76,12.76,0,0,0,4.811-.962V40a20.471,20.471,0,0,1-6.473,1.05c-4.636,0-8.223-2.274-8.223-7.873V21.9H231.6V16.648h4.286V10.612Z"
          transform="translate(729.071 167.461)"/>
    <path id="Path_19" data-name="Path 19" class="cls-2"
          d="M268.659,16.8c9.535,0,12.771,7.7,11.284,14.608h-18.02c.612,4.286,4.811,6.123,9.185,6.123a18.9,18.9,0,0,0,7.61-1.662v4.549a19.553,19.553,0,0,1-8.66,1.575c-7.348,0-13.559-4.2-13.559-12.6C256.5,20.736,263.148,16.8,268.659,16.8Zm.262,4.461c-3.586,0-6.823,2.187-7,6.211h13.209C275.395,25.285,274.17,21.261,268.921,21.261Z"
          transform="translate(725.952 166.522)"/>
    <path id="Path_20" data-name="Path 20" class="cls-2"
          d="M306.558,39.9l-7.873-9.885h-3.849V39.9H289.5V5h5.336V25.469h3.936l6.911-9.447h6.123l-8.747,11.9,9.622,12.072h-6.123Z"
          transform="translate(721.819 168)"/>
  </g>
</svg>
